<?xml version="1.0" standalone="no"?>
<!DOCTYPE svg PUBLIC "-//W3C//DTD SVG 1.1//EN" "http://www.w3.org/Graphics/SVG/1.1/DTD/svg11.dtd" >
<svg xmlns="http://www.w3.org/2000/svg">
<metadata>Generated by IcoMoon</metadata>
<defs>
<font id="KareoIcons" horiz-adv-x="512">
<font-face units-per-em="512" ascent="480" descent="-32" />
<missing-glyph horiz-adv-x="512" />
<glyph unicode="&#x20;" d="" horiz-adv-x="256" />
<glyph unicode="&#x21;" d="M243.96 91.666c0.24 0.226 0.487 0.44 0.748 0.647l15.427 11.733c-87.721-0.1-193.779-0.174-195.591 0.041-7.058 0.837-6.42 4.861-6.285 7.764 2.855 22.679 31.248 85.051 101.629 91.054 0.387-0.399 0.806-0.768 1.296-1.080 1.593-1.019 27.84-17.423 65.938-17.423 6.625 0 13.614 0.502 20.892 1.664l9.813 16.99c-37.315-9.94-67.745 0.673-81.28 7.035 1.214 3.507 2.75 9.943 3.090 20.646 0.066 2.048-0.717 4.030-2.148 5.427-0.315 0.31-31.472 31.202-40.648 71.114-3.917 13.476-8.594 50.654-2.882 76.574 12.956 58.819 39.593 76.823 88.135 76.823h5.447c44.647 0 73.426-21.645 82.949-81.214 6.118-38.272-3.692-61.292-8.596-79.641-10.033-41.938-34.363-62.487-34.591-62.677-1.659-1.359-2.624-3.441-2.614-5.642 0.034-6.955 1.011-12.214 2.391-16.261 3.175 2.161 6.981 3.41 10.983 3.41 2.050 0 4.068-0.322 5.995-0.962 0.336-0.089 0.776-0.246 1.226-0.423-0.735 2.020-1.564 5.455-1.822 11.092 7.639 7.014 28.659 29.138 38.326 67.812 5.084 18.189 12.045 43.095 9.431 84.199-3.226 50.68-36.426 101.824-103.327 101.824h-5.701c-57.534 0-95.032-32.973-108.444-95.347-5.903-27.451-1.792-66.918 3.2-83.295 9.001-37.519 35.827-67.028 44.078-75.415-0.313-4.933-0.919-8.366-1.452-10.588-126.605-3.917-133.071-141.197-133.22-144.192-0.43-8.688 5.632-16.348 14.185-17.93 0.988-0.176 109.368-0.409 206.502-0.274l-7.155 12.396c-4.618 8-2.895 18.076 4.076 24.118zM285.783 216.246c0.663 0 1.305-0.028 1.964-0.036l-2.030 0.883c-0.146 0.064-0.286 0.115-0.433 0.171 0.141-0.384 0.276-0.735 0.407-1.022 0.028 0.002 0.059 0.002 0.092 0.002zM479.728 89.457l-0.374 0.279-33.613 25.2c0.274 3.904 0.24 7.834-0.103 11.738l33.17 25.454c0.059 0.046 0.103 0.103 0.161 0.149 3.029 2.46 3.861 6.8 1.894 10.207l-19.358 33.536c-1.989 3.446-6.533 4.951-10.202 3.31l-0.051-0.023-38.259-17.124c-1.469 0.993-2.954 1.928-4.442 2.786-1.782 1.029-3.63 1.997-5.519 2.89l-3.986 41.098c-0.023 0.223-0.087 0.43-0.125 0.645-0.697 3.776-3.942 6.561-7.844 6.561h-38.728c-3.697 0-6.868-2.583-7.736-6.108-0.064-0.266-0.149-0.522-0.187-0.798l-5.829-41.743c-3.53-1.705-6.933-3.692-10.153-5.932l-38.295 16.673c-0.207 0.089-0.425 0.135-0.635 0.205-3.515 1.165-7.632-0.315-9.495-3.548l-19.358-33.531c-1.925-3.338-1.165-7.524 1.687-10.014 0.151-0.13 0.279-0.276 0.44-0.399l33.802-25.454c-0.274-3.899-0.24-7.829 0.1-11.733l-33.746-25.669c-0.074-0.057-0.13-0.13-0.205-0.19-2.98-2.476-3.789-6.781-1.838-10.161l19.351-33.529c1.991-3.459 6.569-4.941 10.204-3.315l0.2 0.089 38.681 17.25c1.464-0.993 2.954-1.928 4.444-2.788 1.779-1.026 3.625-1.991 5.504-2.882l2.567-27.423 1.331-14.228 0.010-0.105c0.404-4.124 3.832-7.235 7.974-7.235l38.722-0.002c3.966 0 7.375 2.957 7.931 6.887l0.046 0.33 2.002 14.39 3.858 27.719c3.536 1.707 6.94 3.697 10.163 5.937l38.485-16.697c3.638-1.584 8.156-0.089 10.132 3.338l19.361 33.531c2.020 3.527 1.101 8.007-2.142 10.43zM370.786 81.055c-21.657 0-39.281 17.62-39.281 39.281 0 21.657 17.62 39.278 39.281 39.278 21.657 0 39.278-17.62 39.278-39.278 0-21.66-17.62-39.281-39.278-39.281z" />
<glyph unicode="&#x2b;" d="M334.812 136.164h-11.336c-13.445-13.524-37.548-28.265-59.159-28.265-21.607 0-45.709 14.738-59.154 28.265h-11.335c-41.613 0-50.957-33.101-50.957-50.212v-22.082h242.895v22.082c0.002 12.654-10.192 50.212-50.954 50.212zM264.317 139.638c23.749 0 81.754 33.969 81.754 106.77 0 45.153-36.603 81.754-81.754 81.754-45.15 0-81.751-36.603-81.751-81.754 0-73.843 58.005-106.77 81.751-106.77zM500.572 282.299l-225.428 194.608c-7.688 6.635-19.077 6.635-26.765 0l-225.431-194.608c-8.563-7.391-9.511-20.324-2.119-28.885 7.39-8.563 20.324-9.511 28.884-2.119l16.264 14.039v-252.446c0-10.606 8.597-19.2 19.2-19.2h356.572c10.603 0 19.2 8.594 19.2 19.2v249.508l12.859-11.1c3.87-3.341 8.632-4.976 13.373-4.976 5.747 0 11.461 2.404 15.511 7.096 7.39 8.563 6.443 21.496-2.12 28.884zM422.548 32.087h-318.172v266.399l157.384 135.864 160.788-138.806v-263.457z" />
<glyph unicode="&#x2c;" d="M470.295 242.604c0-32.325-26.204-58.529-58.529-58.529s-58.529 26.204-58.529 58.529c0 32.325 26.204 58.53 58.529 58.53 32.325 0 58.529-26.205 58.529-58.53zM316.048 242.604c0-32.325-26.204-58.529-58.529-58.529s-58.529 26.204-58.529 58.529c0 32.325 26.204 58.53 58.529 58.53 32.325 0 58.529-26.205 58.529-58.53zM158.213 242.604c0-32.325-26.204-58.529-58.529-58.529s-58.529 26.204-58.529 58.529c0 32.325 26.204 58.53 58.529 58.53 32.325 0 58.529-26.205 58.529-58.53z" />
<glyph unicode="&#x2e;" d="M254.996 46.564c-12.894 0-25.72 5.384-34.832 15.89-16.673 19.226-14.605 48.327 4.624 65.004l114.127 98.975-114.127 98.975c-19.228 16.676-21.294 45.778-4.624 65.003 16.676 19.231 45.775 21.294 65.004 4.624l154.27-133.788c10.091-8.752 15.89-21.453 15.89-34.814s-5.798-26.061-15.89-34.813l-154.27-133.788c-8.719-7.56-19.471-11.267-30.172-11.267zM377.203 189.348h-269.543c-19.794 0-35.84 16.046-35.84 35.84s16.046 35.84 35.84 35.84h269.543c19.794 0 35.84-16.046 35.84-35.84s-16.046-35.84-35.84-35.84z" />
<glyph unicode="&#x2f;" d="M299.927 339.395c-12.221 6.704-26.238 10.526-41.132 10.526-47.311 0-85.811-38.5-85.811-85.811 0-14.894 3.822-28.91 10.526-41.131l116.416 116.416zM278.781 180.675c31.286 7.495 55.954 32.166 63.452 63.449l-63.452-63.449zM146.158 303.501c31.58 24.555 70.267 44.815 113.362 44.815 14.779 0 29.952-0.862 45.392-3.934l19.952 19.952c-1.137 0.343-2.26 0.622-3.392 0.945-1.538 0.435-3.077 0.883-4.606 1.282-1.255 0.325-2.496 0.615-3.745 0.914-1.534 0.371-3.065 0.74-4.587 1.075-1.142 0.251-2.281 0.478-3.418 0.709-1.636 0.333-3.267 0.647-4.892 0.94-1.067 0.192-2.132 0.376-3.195 0.55-0.673 0.11-1.351 0.243-2.022 0.348 0.077-0.023 0.149-0.051 0.226-0.074-13.123 2.046-25.899 2.896-38.272 2.896-84.168 0-175.921-79.163-213.197-115.32-0.031-0.031-0.062-0.059-0.092-0.090-3.633-3.525-6.743-6.635-9.278-9.223-0.069-0.071-0.138-0.141-0.208-0.21-0.788-0.806-1.523-1.564-2.194-2.263-0.072-0.074-0.136-0.141-0.205-0.215-1.321-1.375-2.401-2.522-3.228-3.415-0.064-0.069-0.125-0.136-0.187-0.2-0.369-0.399-0.681-0.743-0.937-1.024-0.054-0.061-0.098-0.107-0.146-0.164-0.235-0.263-0.433-0.487-0.548-0.625-2.995-3.559-3.21-8.591-0.745-12.354 0.354-0.538 0.761-1.050 1.221-1.529v0c2.732-2.829 38.638-39.654 87.286-73.31l43.169 43.166c-12.126 18.698-19.202 40.96-19.202 64.858 0 14.832 2.724 28.782 7.688 41.5zM487.339 240.965c-1.185 1.485-29.491 36.667-71.752 72.376-0.763 0.642-1.518 1.234-2.279 1.863l-36.9-36.9c0.74-5.302 1.144-10.737 1.144-16.305 0-65.915-53.63-119.544-119.544-119.544-5.535 0-10.972 0.409-16.31 1.142l-36.743-36.743c17.413-5.652 34.944-9.039 52.002-9.039 91.978 0 223.844 123.87 229.412 129.147 3.917 3.704 4.339 9.794 0.97 14.003zM418.882 389.563c-5.32 5.317-12.39 8.246-19.911 8.246-7.522 0-14.592-2.926-19.911-8.24l-290.704-290.706c-5.32-5.32-8.249-12.393-8.249-19.914s2.928-14.592 8.249-19.911c5.32-5.32 12.393-8.248 19.912-8.248 7.522 0 14.592 2.928 19.912 8.246l290.701 290.703c5.32 5.32 8.248 12.393 8.248 19.914s-2.928 14.589-8.246 19.911z" />
<glyph unicode="&#x30;" d="M451.85 49.475h-391.839c-42.041 0-44.007 38.351-44.749 52.793-10.598 135.716-0.074 261.261 0.681 270.159-0.354 19.587 16.397 43.554 44.068 43.554h391.839c24.041 0 43.648-19.356 44.065-43.3 1.203-9.577 11.822-97.989-0.023-268.646-0.098-1.403-0.169-2.906-0.243-4.47-0.714-14.989-2.389-50.089-43.799-50.089zM65.444 388.007c-20.135 0.074-21.573-22.526-21.573-22.526-0.569-7.196-11.479-81.687-0.684-220.001 1.39-27.005 8.279-31.703 22.257-31.703h380.974c23.125 0.036 21.45 32.023 21.558 33.582 12.086 174.142 0.192 216.722 0.069 217.646 0 0-0.615 23.311-21.625 23.004h-380.976zM234.291 359.78c0 0-40.474 10.872-105.644-20.221 0 0-20.178-16.389 0-20.974 0 0 30.758 17.009 78.113 18.148 47.355 1.142 32.507 18.455 27.53 23.048zM250.923 307.047c-8.374 2.248-90.432 23.89-148.431-32.374 0 0-18.931-21.225 0.22-20.971 13.192 4.549 54.892 41.62 120.924 29.936 33.224-5.878 35.661 21.161 27.287 23.409zM224.071 260.526c-8.999 1.602-64.514 13.309-122.855-45.714 0 0-17.966-24.010 2.13-22.011 17.941 7.969 39.856 49.326 97.298 44.188 35.428-3.167 32.428 21.934 23.427 23.537zM205.136 208.233c0 0-6.393 3.42-10.599 2.944-18.16-2.050-50.583-6.098-79.795-34.972 0 0-20.544-18.055-3.981-19.917 0 0 5.986 0.461 11.377 5.104 13.351 11.505 23.234 21.737 55.542 26.462 42.775 6.257 32.41 16.464 27.456 20.377zM187.748 161.168c0 0-4.319 2.452-7.207 2.199-12.47-1.093-34.739-3.308-55.237-22.579 0 0-14.377-12.009-3.067-13.568 0 0 4.106 0.212 7.877 3.3 9.339 7.649 16.281 14.485 38.484 17.168 29.397 3.548 22.474 10.716 19.149 13.481zM272.601 359.78c0 0 40.474 10.872 105.644-20.221 0 0 20.178-16.389 0-20.974 0 0-30.759 17.009-78.113 18.148-47.355 1.142-32.507 18.455-27.53 23.048zM255.97 307.047c8.374 2.248 90.432 23.89 148.431-32.374 0 0 18.931-21.225-0.22-20.971-13.192 4.549-54.892 41.62-120.924 29.936-33.221-5.878-35.658 21.161-27.287 23.409zM282.821 260.526c8.998 1.602 64.514 13.309 122.855-45.714 0 0 17.966-24.010-2.13-22.011-17.94 7.969-39.856 49.326-97.296 44.188-35.43-3.167-32.428 21.934-23.429 23.537zM301.76 208.233c0 0 6.392 3.42 10.599 2.944 18.161-2.050 50.583-6.098 79.795-34.972 0 0 20.544-18.055 3.981-19.917 0 0-5.986 0.461-11.377 5.104-13.351 11.505-23.235 21.737-55.542 26.462-42.775 6.257-32.412 16.464-27.456 20.377zM319.145 161.168c0 0 4.318 2.452 7.207 2.199 12.47-1.093 34.739-3.308 55.237-22.579 0 0 14.377-12.009 3.067-13.568 0 0-4.106 0.212-7.877 3.3-9.339 7.649-16.281 14.485-38.485 17.168-29.397 3.548-22.474 10.716-19.149 13.481zM250.194 223.306c0 0 3.745-6.241 6.656 0 4.002 8.578 4.437 24.312 5.806 32.865 1.925 12.040 10.596 106.88 10.596 106.88-0.983-8.798 1.28 5.338-6.562 7.865-3.17 1.203-11.843 6.74-26.338 0-4.547-2.115-6.561-12.078-6.561-12.078s9.4-97.994 9.84-103.729c1.377-17.884 6.561-31.803 6.561-31.803z" />
<glyph unicode="&#x32;" d="M472.889 355.443l-25.641 45.138c-1.587 2.755-4.196 4.769-7.248 5.612-3.057 0.845-6.303 0.438-9.039-1.127l-35.868-21.084v18.238l-0.031 0.729c-1.026 11.845-13.228 34.586-52.081 35.879l-12.505 0.448c-56.231 2.055-187.911 9.442-262.961-3.632-21.97-3.702-27.776-19.899-27.776-27.945v-351.693c0.066-7.79 5.922-23.166 27.605-25.628 44.716-5.087 92.559-6.789 136.64-6.789 85.921 0 157.507 6.479 163.474 7.035 20.265 0.207 27.632 15.572 27.632 25.923v239.431l73.467 43.185c5.701 3.256 7.632 10.547 4.332 16.281zM373.123 371.067l-113.649-66.809c-2.363-1.351-4.175-3.479-5.145-6.011-0.151-0.392-0.276-0.788-0.387-1.196-0.811-3.054-0.376-6.32 1.208-9.075l25.644-45.13c3.305-5.737 10.594-7.744 16.284-4.485l76.045 44.7v-191.895c0-2.117-0.809-9.026-11.2-9.026l-0.807-0.038c-1.62-0.159-153.393-15.475-286.753-0.317-11.279 1.283-12.539 7.363-12.651 8.911v305.981c0 0.089 0.156 8.993 13.765 11.287 73.36 12.787 198.354 5.266 249.267 3.402l12.56-0.448c31.536-1.049 35.451-18.096 35.82-20.245v-19.607zM200.11 225.695l47.094-0.212-21.998 43.303-25.096-43.090zM133.171 230.188h40.353c1.552 0 2.809 3.82 2.809 5.376s-1.257 5.376-2.809 5.376h-40.353c-1.552 0-2.809-3.82-2.809-5.376-0.002-1.556 1.255-5.376 2.809-5.376zM133.171 286.515h64.591c1.552 0 2.809 3.819 2.809 5.376s-1.257 5.376-2.809 5.376h-64.591c-1.552 0-2.809-3.819-2.809-5.376-0.002-1.557 1.255-5.376 2.809-5.376zM133.171 342.843h108.347c1.552 0 2.809 3.82 2.809 5.376s-1.257 5.376-2.809 5.376h-108.347c-1.552 0-2.809-3.82-2.809-5.376-0.002-1.556 1.255-5.376 2.809-5.376zM130.361 179.236c0-1.557 1.257-5.376 2.809-5.376h176.924c1.551 0 2.808 3.82 2.808 5.376 0 1.557-1.257 5.376-2.808 5.376h-176.922c-1.554 0-2.811-3.82-2.811-5.376zM310.096 128.284h-176.924c-1.552 0-2.809-3.82-2.809-5.376 0-1.557 1.257-5.376 2.809-5.376h176.924c1.551 0 2.808 3.82 2.808 5.376 0 1.554-1.257 5.376-2.808 5.376z" />
<glyph unicode="&#x33;" d="M255.721 140.452c-5.427 0-10.688 1.433-14.807 4.034l-217.643 137.487c-5.767 3.643-9.004 9.237-8.87 15.345 0.133 6.111 3.602 11.561 9.523 14.951l217.188 124.403c4.078 2.334 9.267 3.623 14.613 3.623 5.343 0 10.532-1.287 14.612-3.625l217.183-124.398c5.921-3.392 9.392-8.842 9.526-14.953 0.133-6.108-3.103-11.702-8.873-15.345l-217.641-137.487c-4.122-2.601-9.377-4.034-14.81-4.034zM43.097 296.702l210.117-132.736c0.249-0.156 1.188-0.476 2.506-0.476 1.316 0 2.256 0.32 2.506 0.476l210.12 132.736-209.462 119.974c-0.279 0.161-1.395 0.579-3.159 0.579-1.767 0-2.882-0.415-3.159-0.576l-209.47-119.977zM363.776 113.603c-101.584-62.459-210.365-2.471-217.564 0-4.91 2.796-10.399 9.241-10.399 15.017 0 6.046 0 27.223 0 30.423 0 4.401-3.2 6.543-3.2 6.543l-15.683 10.844c0 0-4.293 0.645-4.293-2.156s0-89.357 0-89.357 0-9.877 5.317-13.161c24.583-15.188 145.948-72.666 274.75 0.942 1.498 0.855 4.5 4.475 4.5 12.219 0 0 0 83.257 0 86.157 0 3.638-4.357 2.094-4.357 2.094l-15.475-10.783c0 0-3.2-1.943-3.2-5.745 0-5.942 0-16.333 0-24.084 0.002-11.825-5.911-16.197-10.396-18.954zM455.659 168.435c4.283 4.457 7.002 10.967 7.002 18.243 0 10.811-5.973 19.961-14.224 23.125h2.529v56.865l-159.99 31.608c-1.984 6.725-14.111 11.904-28.813 11.904-16.087 0-29.13-6.195-29.13-13.837s13.043-13.837 29.13-13.837c6.216 0 11.963 0.932 16.691 2.506l156.752-30.966v-44.244h0.149c-8.253-3.161-14.224-12.313-14.224-23.125 0-9.113 4.247-17.042 10.522-21.207-2.284-20.278-6.252-71.793 7.906-101.419 0 0 32.166 0.371 51.566 12.142-0.005 0-37.494 59.385-35.865 92.242z" />
<glyph unicode="&#x34;" d="M486.707 272.569l-0.115 1.039c-6.080 61.084-67.272 101.348-237.243 101.348-221.43 0-223.993-81.518-223.993-102.487 0-21.481 11.418-23.257 12.718-23.388l0.545-0.030c0 0 32.282-0.141 57.421-0.141 14.635 0 23.906 0.048 27.556 0.146 13.363 0.345 19.077 13.916 20.35 21.883l0.056 0.528c0.131 1.428 2.010 13.842 3.942 26.306 0.569 0 1.18 0 1.833 0l56.558 0.026c37.125 0.025 83.102 0.056 116.416 0.056 23.14 0 34.675-0.016 40.1-0.034 1.479-6.692 4.185-19.422 4.905-26.268 1.61-15.248 11.914-22.643 20.311-22.354l85.028-0.149c13.611-0.138 13.652 21.171 13.611 23.518zM464.916 268.037h-70.21c-1.346 0.679-5.44-1.495-6.38 7.434-1.075 10.212-5.663 35.953-5.803 36.501-0.804 4.743-4.728 4.756-8.878 4.777l-18.716 0.026c-27.886 0.034-96.842-0.007-148.603-0.041 0 0-65.669-0.043-68.777-0.043-7.117 0-7.255-6.103-7.255-6.103-2.711-17.395-4.234-29.952-4.546-32.727-0.842-4.628-0.215-9.643-7.112-9.825-3.548-0.089-60.239-0.034-65.882-0.010-4.849 0-7.757-0.125-6.51 8.243 1.913 12.833-1.84 79.596 202.099 79.596 173.238 0 209.593-39.688 218.376-78.172 2.375-6.942 0.75-9.654-1.802-9.654zM333.471 277.689h-157.338c-6.108 0-14.502-2.898-17.275-9.654l-71.964-152.269c-2.427-3.3-1.736-18.865-1.736-19.661l-0.092-57.731c0-5.335 4.598-15.567 16.638-15.567h310.295c10.673 0 13.002 11.054 13.002 14.2v61.827c0 1.649-0.077 12.88-2.199 18.238-13.12 33.118-55.993 117.437-71.145 150.666-1.38 3.038-7.255 9.95-18.186 9.95zM398.994 86.641c0 0 1.034-8.031-7.552-8.031-51.623 0-261.778-0.051-272.079-0.051-8.697 0-8.192 9.372-8.192 9.372v21.455l68.823 144.852h150.264c28.631-60.58 67.641-135.567 68.736-145.063v-22.536zM333.658 132.839h-153.935c-2.75 0-5.22 1.137-6.774 3.111-1.554 1.979-2.071 4.647-1.418 7.317l19.256 78.996c1.646 7.009 6.405 9.211 11.72 9.211h105.152c7.106 0 9.853-2.685 11.932-9.070l22.011-79.12c0.74-2.668 0.297-5.332-1.211-7.322-1.51-1.981-3.966-3.123-6.733-3.123zM208.417 220.626c-2.512 0-3.97-1.401-4.565-3.84l-17.024-69.522c-0.24-0.99-0.246-3.512 2.76-3.512h134.026c2.685 0 2.846 2.422 2.578 3.389l-19.389 69.57c-0.681 2.45-2.135 3.914-4.677 3.914h-93.709z" />
<glyph unicode="&#x35;" d="M418.027 424.761h-92.316v30.622c0 41.401-136.906 40.689-136.906 0v-30.625h-97.382c-14.433 0-26.171-12.242-26.171-27.289v-363.372c0-18.071 1.477-27.065 26.171-32.409 138.977-30.078 326.605 0 326.605 0 17.173 2.563 26.173 17.362 26.173 32.409v363.374c-0.005 15.048-11.745 27.29-26.173 27.29zM413.084 65.618c0 0-169.323-22.971-316.721 0-6.151 0.96-5.404 9.047-5.322 11.044v315.748c0 3.213 2.439 5.926 5.322 5.926h92.442v-22.405h136.906v22.403h87.375c2.882 0 5.322-2.713 5.322-5.927v-315.745c0 0 1.219-10.122-5.325-11.044zM359.347 178.238h-202.67c-7.778 0-14.080 6.305-14.080 14.080s6.303 14.080 14.080 14.080h202.667c7.777 0 14.080-6.305 14.080-14.080s-6.303-14.080-14.077-14.080zM359.347 112.371h-202.67c-7.778 0-14.080 6.305-14.080 14.080s6.303 14.080 14.080 14.080h202.667c7.777 0 14.080-6.305 14.080-14.080s-6.303-14.080-14.077-14.080zM242.642 304.259h-38.088v34.629c0 0.62-0.499 1.119-1.119 1.119h-28.224c-0.619 0-1.119-0.499-1.119-1.119v-34.629h-36.355c-0.619 0-1.119-0.502-1.119-1.118v-28.224c0-0.617 0.499-1.119 1.119-1.119h36.357v-34.629c0-0.619 0.499-1.119 1.119-1.119h28.224c0.619 0 1.119 0.499 1.119 1.119v34.629h38.088c0.617 0 1.119 0.502 1.119 1.119v28.224c-0.005 0.619-0.505 1.118-1.121 1.118zM359.347 242.417h-61.022c-7.777 0-14.080 6.305-14.080 14.080s6.303 14.080 14.080 14.080h61.022c7.777 0 14.080-6.306 14.080-14.080s-6.305-14.080-14.080-14.080z" />
<glyph unicode="&#x36;" d="M420.296 336.182c-41.257-42.785-144.719-145.131-167.774-145.131-13.982 0-69.806 49.81-164.275 147.85-1.058 1.106-5.545 0.689-6.791-1.375-0.791-1.308-2.944-3.894 0.704-7.508 32.87-32.569 77.832-80.976 113.047-112.22l-105.403-94.556c-1.907-1.874-0.315-5.271 0.76-6.354 0.54-0.546 3.2-2.132 6.311 0.19l105.564 94.718c0.034 0.034 0.043 0.077 0.077 0.113 23.583-20.626 42.010-34.061 50.010-34.061 9.129 0 28.342 13.302 50.985 32.141l103.741-92.91c0.54-0.535 4.078-1.305 6.085 0.45 1.707 1.493 2.772 5.012 1.096 7.048l-102.917 92.135c50.24 42.503 104.56 99.74 114.862 110.469 3.33 3.466 1.178 7.101 0.077 8.164-1.088 1.044-5.084 1.945-6.157 0.839zM479.616 349.934c0 17.726-14.425 32.151-32.151 32.151h-384.103c-17.73 0-32.151-14.425-32.151-32.151 0 0-11.463-129.039-0.681-267.195 1.111-21.599 9.001-41.27 38.356-41.27h378.578c25.707 0 31.058 27.449 32.151 43.2 12.086 174.116 0 265.264 0 265.264zM457.925 122.529c-1.231-11.435-1.382-26.627-21.104-26.627h-362.813c-17.388 0-18.422 8.438-21.105 19.978-10.094 94.669 0.535 225.92 0.535 225.92 0.074 7.941 6.454 15.629 15.045 15.629h373.863c8.589 0 15.58-6.992 15.58-15.58 0 0 12.889-99.638 0-219.32z" />
<glyph unicode="&#x37;" d="M458.553 352.19h-88.072v63.696c0 15.411-12.539 27.95-27.95 27.95h-173.202c-15.409 0-27.95-12.536-27.95-27.95v-63.698h-88.072c-15.409 0-27.95-12.536-27.95-27.95v-177.848c0-15.414 12.541-27.95 27.95-27.95h72.422l-14.789-65.346c-1.728-7.632-0.090-15.303 4.498-21.043 4.58-5.74 11.702-9.029 19.525-9.029h241.933c7.826 0 14.945 3.292 19.525 9.029 4.587 5.74 6.226 13.409 4.498 21.043l-14.789 65.346h72.423c15.409 0 27.95 12.536 27.95 27.95v177.851c0 15.411-12.541 27.95-27.95 27.95zM174.448 415.806h162.962c2.729 0 5.041-2.306 5.041-5.038v-70.638h-173.043v70.636c0 2.731 2.311 5.040 5.041 5.040zM375.591 52.493c0.223-0.998-0.494-4.002-3.269-4.002h-233.022c-1.879 0-3.489 1.454-3.079 3.791l12.992 66.158 11.149 49.272c0.822 3.612 5.263 7.163 8.965 7.163h173.202c3.702 0 8.144-3.548 8.965-7.163l11.149-49.272 12.949-65.948zM458.471 180.447c0-2.731-2.171-8.505-7.897-8.505h-73.536l-10.022 34.171c-4.037 18.721-13.363 22.264-24.484 22.264h-173.202c-14.69 0-22.564-8.911-25.070-23.232l-8.732-33.206h-74.926c-5.013 0-7.214 5.414-7.214 8.149v139.031c0 2.732 2.309 5.041 5.041 5.041h395.005c2.729 0 5.041-2.307 5.041-5.041v-138.672zM322.148 135.678h-128.87c-1.582 0-2.864 3.84-2.864 5.425 0 1.582 1.28 5.425 2.864 5.425h128.87c1.582 0 2.865-3.84 2.865-5.425-0.002-1.582-1.283-5.425-2.865-5.425zM329.858 107.041h-144.29c-1.582 0-2.864 3.84-2.864 5.425 0 1.582 1.28 5.425 2.864 5.425h144.287c1.582 0 2.865-3.84 2.865-5.425 0-1.584-1.28-5.425-2.862-5.425zM342.909 78.403h-170.393c-1.582 0-2.864 3.84-2.864 5.425 0 1.582 1.28 5.425 2.864 5.425h170.393c1.582 0 2.865-3.84 2.865-5.425 0-1.582-1.283-5.425-2.865-5.425z" />
<glyph unicode="&#x38;" d="M275.815 231.191l1.175-77.752c25.357 0 32.414 8.94 32.414 43.115 0 26.168-12.575 34.637-33.59 34.637zM255.014 486.152c-127.055 0-230.054-102.999-230.054-230.054s102.999-230.052 230.052-230.052 230.052 102.999 230.052 230.052-102.996 230.055-230.049 230.055zM277.174 108.936c0 0-0.45-39.618-0.348-41.884 0.336-7.406-39.445-9.19-39.030 0.002 0.535 11.865 0.118 42.27 0.118 42.27-49.915-0.072-89.16 28.291-91.274 88.266-0.059 1.69 0 5.146 6.684 5.146h35.412c4.436 0 6.817-3.438 6.907-5.102 1.418-27.090 14.462-44.196 41.672-44.196l-0.392 77.473c-53.168 0-75.874 34.184-75.958 84.562-0.071 41.961 30.81 78.183 76.887 78.183 0 0-0.21 31.834-0.054 40.597 0.146 8.108 39.194 9.001 39.619-1.116 0.819-19.5-0.425-39.224-0.425-39.224 19.771 0 69.361-24.957 73.3-72.909 0.164-2 0.248-6.118-6.526-6.118l-28.163-0.272c-5.56 0-6.958 3.382-7.158 4.979-2.906 23.17-20.587 33.070-32.279 32.988l0.284-80.034c62.277 0 74.089-50.020 74.089-81.316 0-52.103-27.728-82.296-73.367-82.296zM207.306 313.18c0-23.836 7.321-38.894 30.869-38.894l-0.397 80.005c-22.869 0-30.471-11.876-30.471-41.111z" />
<glyph unicode="&#x39;" d="M287.76 282.504l-0.343 96.617c14.113 0.1 35.461-11.853 38.969-39.824 0.24-1.928 1.928-6.011 8.642-6.011l34 0.33c8.179 0 8.077 4.974 7.877 7.388-4.757 57.884-64.622 88.016-88.489 88.016 0 0 1.502 23.813 0.514 47.355-0.514 12.214-47.652 11.134-47.828 1.346-0.192-10.58 0.064-49.011 0.064-49.011-55.626 0-92.905-43.728-92.82-94.385 0.105-60.818 27.512-102.085 91.699-102.085l0.471-93.527c-32.85 0-48.594 20.651-50.306 53.353-0.105 2.010-2.98 6.159-8.335 6.159h-42.755c-8.072 0-8.143-4.17-8.072-6.211 2.553-72.404 49.928-106.639 110.188-106.555 0 0 0.505-36.705-0.141-51.031-0.502-11.098 47.522-8.942 47.117-0.002-0.123 2.734 0.423 50.563 0.423 50.563 55.096 0 88.571 36.45 88.571 99.349 0 37.781-14.259 98.166-89.444 98.166zM204.286 331.559c0 35.294 9.178 49.628 36.785 49.628l0.478-96.581c-28.423 0-37.263 18.179-37.263 46.953zM288.412 138.716l-1.418 93.865c25.37 0 40.55-10.224 40.55-41.815-0.002-41.257-8.519-52.050-39.132-52.050z" />
<glyph unicode="&#x3b;" d="M74.91 261.246l154.268 133.786c19.228 16.673 48.327 14.608 65.004-4.624 16.673-19.225 14.605-48.327-4.623-65.003l-74.235-64.377h191.363c19.794 0 35.84-16.046 35.84-35.84s-16.046-35.84-35.84-35.84h-188.493l71.365-61.89c19.228-16.676 21.294-45.778 4.623-65.004-9.113-10.506-21.937-15.89-34.832-15.89-10.701 0-21.453 3.704-30.169 11.267l-154.27 133.788c-10.091 8.752-15.89 21.453-15.89 34.813s5.796 26.061 15.89 34.814z" />
<glyph unicode="&#x3c;" d="M290.596 450.473c-0.819 0.010-28.409 0.013-29.23 0.013-0.743 0-44.106-0.002-44.849-0.013-115.407-1.193-208.594-95.12-208.594-210.814 0-115.819 93.397-209.828 208.983-210.816 0.614-0.005 43.845-0.007 44.459-0.007 0.825 0 28.413 0.005 29.235 0.013 115.3 1.324 208.356 95.202 208.356 210.811 0 115.614-93.058 209.493-208.361 210.814zM138.78 198.738c-24.225 0-43.865 19.64-43.865 43.865s19.641 43.865 43.865 43.865c24.226 0 43.865-19.64 43.865-43.865s-19.641-43.865-43.865-43.865zM257.070 198.738c-24.226 0-43.865 19.64-43.865 43.865s19.641 43.865 43.865 43.865c24.226 0 43.865-19.64 43.865-43.865s-19.64-43.865-43.865-43.865zM372.67 198.738c-24.226 0-43.865 19.64-43.865 43.865s19.64 43.865 43.865 43.865 43.865-19.64 43.865-43.865-19.638-43.865-43.865-43.865z" />
<glyph unicode="&#x3d;" d="M388.721 124.378h-20.521c-24.341-24.484-67.976-51.166-107.095-51.166-39.114 0-82.75 26.683-107.090 51.166h-20.521c-75.335 0-92.247-59.922-92.247-90.901v-39.977h439.719v39.977c0.002 22.904-18.447 90.9-92.245 90.9zM261.107 130.663c42.995 0 148.002 61.497 148.002 193.29 0 81.738-66.263 148.002-148.001 148.002s-147.999-66.263-147.999-148.002c0-133.678 105.008-193.29 147.999-193.29z" />
<glyph unicode="&#x41;" d="M486.323 48.233c-23.555 101.878-24.151 316.564-24.151 321.751v34.765c0 2.496-0.773 15.662-15.67 15.662l-67.018-0.056-0.261 46.656c0 2.34-0.397 2.918-3.166 2.918h-26.675c-3.151 0-3.134-0.558-3.134-3.134v-46.387h-186.334v46.39c0 2.017-0.612 3.133-3.133 3.133h-26.675c-1.846 0-3.133-0.95-3.133-3.133v-46.387h-65.582c-13.575 0-15.662-10.476-15.662-15.662v-34.762c0-5.189 5.514-235.297-12.229-314.704-0.842-3.763 0.080-7.562 2.593-10.701 4.13-5.159 16.699-20.844 220.314-20.844 52.557 0 106.936 1.255 149.194 3.446 72.717 3.769 75.93 8.026 79.038 12.15 1.945 2.578 2.406 5.788 1.687 8.899zM338.243 52.227c9.377 32.916 13.998 66.15 15.875 82.455 8.161-1.224 20.57-2.588 35.344-2.588 0.002 0 0.002 0 0.005 0 17.723 0 34.44 1.928 49.93 5.75-19.63-25.959-62.643-71.447-101.154-85.616zM67.571 57.805c-2.926 0.632-11.474 4.762-8.294 19.015 9.874 79.68 9.513 207.227 9.081 265.884-0.103 13.87 1.465 13.087 14.034 12.958l347.192-0.348c8.374 0 10.202 1.257 9.843-11.016-1.063-36.314 3.627-115.302 8.87-187.466-50.214-17.122-98.786-5.335-98.957-5.299-13.125 2.685-10.112-9.984-10.337-12.7-0.048-0.558-2.299-43.44-18.145-90.617-18.55-0.223-43.456-0.566-64.451-0.566-107.815 0-157.76 3.425-188.836 10.153zM187.464 321.877h-58.173c-1.731 0-3.133-1.401-3.133-3.134v-58.176c0-1.731 1.4-3.133 3.133-3.133h58.173c1.731 0 3.133 1.401 3.133 3.133v58.178c0 1.731-1.4 3.131-3.133 3.131zM177.47 270.674h-38.057v38.057h38.054v-38.057zM187.464 235.961h-58.173c-1.731 0-3.133-1.4-3.133-3.133v-58.176c0-1.731 1.4-3.134 3.133-3.134h58.173c1.731 0 3.133 1.401 3.133 3.134v58.176c0 1.733-1.4 3.133-3.133 3.133zM177.661 184.512h-38.444v38.446h38.444v-38.446zM187.464 148.252h-58.173c-1.731 0-3.133-1.401-3.133-3.134v-58.176c0-1.731 1.4-3.134 3.133-3.134h58.173c1.731 0 3.133 1.401 3.133 3.134v58.176c0 1.731-1.4 3.134-3.133 3.134zM179.011 95.411h-41.185v41.19h41.188v-41.19zM289.006 148.252h-58.176c-1.731 0-3.133-1.401-3.133-3.134v-58.176c0-1.731 1.4-3.134 3.133-3.134h58.173c1.731 0 3.134 1.401 3.134 3.134v58.176c0 1.731-1.401 3.134-3.131 3.134zM280.412 95.66h-40.901v40.904h40.901v-40.904zM287.703 235.292h-58.173c-1.731 0-3.133-1.4-3.133-3.134v-58.176c0-1.731 1.4-3.134 3.133-3.134h58.173c1.731 0 3.134 1.401 3.134 3.134v58.176c0 1.731-1.401 3.133-3.134 3.133zM277.858 183.78h-38.502v38.505h38.502v-38.505zM387.942 323.671h-58.173c-1.731 0-3.134-1.4-3.134-3.134v-58.178c0-1.731 1.401-3.133 3.134-3.133h58.173c1.731 0 3.134 1.401 3.134 3.133v58.178c0 1.731-1.401 3.134-3.134 3.134zM378.153 272.251h-38.451v38.454h38.451v-38.454z" />
<glyph unicode="&#x42;" d="M484.803 227.577c-68.976 111.417-216.632 236.124-222.879 241.498-2.755 2.37-6.827 2.386-9.593 0.023-6.636-5.66-161.597-139.94-226.041-242.59-1.378-2.197-1.16-5.046 0.174-7.273 1.331-2.222 3.735-3.587 6.328-3.587h51.123c0 0 1.388-166.766 1.756-171.87 0.832-11.561 10.942-20.966 22.535-20.966 0 0 205.77 0 211.618 0h85.378c11.717 0 21.622 9.526 22.080 21.235 0.207 5.378-1.447 171.602-1.447 171.602h53.069c0.034 0.005 0.067 0.005 0.098 0 4.073 0 7.375 3.303 7.375 7.375 0 1.715-0.589 3.3-1.577 4.554zM407.424 84.36c-0.149-3.832-0.248-11.978-12.255-11.978h-276.925c-11.804 0-15.695 2.166-15.695 12.196 0 1.27-0.059 145.705-0.013 145.766 31.355 42.506 111.485 133.716 153.721 164.191 0.712 0.512 2.396 1.193 4.454-0.441 20.823-16.517 79.957-68.413 146.53-164.367-0.002 0 0.236-144.056 0.185-145.367zM421.716 233.004c-79.675 115.513-158.274 173.424-159.058 174.029-2.481 1.925-6.039 2.258-8.528 0.361-42.693-32.563-117.986-110.884-166.838-174.492l-34.411 0.051c54.946 93.358 178.061 195.298 204.211 218.184 25.337-22.418 142.118-120.010 201.493-218.184l-36.869 0.051zM294.3 101.043h-76.867c-3.305 0-5.995 2.688-5.995 5.995v98.734c0 3.308 2.691 6 5.995 6h76.867c3.305 0 5.998-2.693 5.998-6v-98.734c0-3.308-2.69-5.995-5.998-5.995zM222.413 200.369c-0.51 0-0.942-0.43-0.942-0.945v-85.99c0-0.51 0.43-0.942 0.942-0.942h66.944c0.51 0 0.942 0.43 0.942 0.942v85.99c0 0.514-0.43 0.945-0.942 0.945h-66.944z" />
<glyph unicode="&#x43;" d="M480.676 415.972c-26.45 4.109-103.186 2.243-126.208 0.546-6.075-0.448-10.565-8.935-10.565-8.935s-115.914-214.164-136.051-253.599c-3.919-7.675-8.028-6.556-11.417-3.904-11.047 8.645-30.382 35.755-48.924 51.689-1.444 2.12-6.843 7.856-20.022 7.856-25.751 0-78.922 1.523-99.241-2.629-6.782-1.385-3.945-9.738-3.945-9.738s152.999-150.582 174.912-166.656c11.305-8.294 19.922-19.115 31.742 6.781 0 0 160.261 290.931 253.232 363.825 2.186 1.71 9.664 12.716-3.512 14.763z" />
<glyph unicode="&#x44;" d="M255.995 403.932c-126.841 0-230.031-103.194-230.031-230.031 0-49.671 10.542-103.452 35.689-141.745 1.395-2.125 6.505-8.973 21.161-8.973l347.108-0.377c12.706 0 20.142 8.584 22.154 11.968 25.889 43.525 33.95 88.834 33.95 139.128 0 126.835-103.194 230.029-230.031 230.029zM430.416 76.078l-349.084 0.366c-17.482-0.21-34.199 52.592-34.199 97.457 0 117.988 90.872 208.862 208.863 208.862 117.988 0 208.863-90.875 208.863-208.862 0-45.425-16.717-97.666-34.442-97.822zM384.688 269.901c-8.151 9.101-138.755-94.576-147.856-102.73-9.101-8.151-9.871-22.137-1.72-31.237 8.151-9.101 22.136-9.872 31.237-1.721 9.101 8.151 126.49 126.587 118.339 135.688zM256 267.927c-4.242 0-7.68 3.438-7.68 7.68v63.36c0 4.242 3.438 7.68 7.68 7.68s7.68-3.438 7.68-7.68v-63.36c0-4.242-3.438-7.68-7.68-7.68zM316.723 247.181c-1.61 0-3.233 0.505-4.618 1.546-3.387 2.553-4.063 7.367-1.51 10.755l38.131 50.603c2.553 3.389 7.368 4.063 10.755 1.513 3.387-2.553 4.063-7.368 1.51-10.755l-38.131-50.606c-1.508-2.002-3.81-3.056-6.137-3.056zM352.738 194.061c-3.341 0-6.413 2.197-7.38 5.565-1.17 4.075 1.188 8.33 5.266 9.498l60.905 17.464c4.080 1.175 8.33-1.188 9.5-5.266 1.17-4.075-1.188-8.33-5.266-9.498l-60.905-17.464c-0.707-0.2-1.418-0.3-2.12-0.3zM408.683 107.264c-0.914 0-1.846 0.164-2.75 0.512l-59.149 22.707c-3.961 1.521-5.937 5.962-4.418 9.923 1.521 3.958 5.967 5.934 9.923 4.418l59.149-22.707c3.961-1.521 5.937-5.962 4.418-9.923-1.175-3.054-4.086-4.93-7.173-4.93zM195.021 247.952c-2.327 0-4.631 1.054-6.137 3.059l-38.131 50.598c-2.553 3.387-1.876 8.205 1.511 10.757 3.387 2.55 8.205 1.876 10.755-1.513l38.131-50.601c2.553-3.387 1.876-8.205-1.511-10.757-1.387-1.040-3.008-1.543-4.618-1.543zM158.339 195.292c-0.702 0-1.416 0.098-2.122 0.3l-60.905 17.464c-4.078 1.17-6.436 5.422-5.266 9.5 1.172 4.078 5.433 6.433 9.5 5.266l60.905-17.464c4.078-1.17 6.436-5.422 5.266-9.5-0.97-3.369-4.042-5.565-7.378-5.565zM101.578 108.46c-3.088 0-6.001 1.874-7.173 4.93-1.52 3.961 0.458 8.402 4.418 9.923l59.151 22.707c3.96 1.521 8.402-0.458 9.922-4.418s-0.458-8.402-4.418-9.923l-59.151-22.707c-0.906-0.348-1.835-0.512-2.749-0.512z" />
<glyph unicode="&#x46;" d="M310.523 344.924c-11.656 7.024-30.815 15.498-55.792 15.498-28.854 0-55.98-11.236-76.386-31.639-35.241-35.243-41.672-88.996-16.793-131.102 1.037-1.756 4.081-4.401 6.321-2.161l143.629 143.626c2.312 2.381 0.525 4.872-0.978 5.778zM341.253 308.864l-141.77-144.207c-2.788-2.757-0.028-5.115 1.552-6.021 16.276-9.349 34.667-14.252 53.694-14.257h0.007c28.848 0 55.97 11.236 76.372 31.639 35.597 35.599 41.802 90.089 16.031 132.382-0.801 1.316-3.699 2.647-5.885 0.464zM256 480.289c-125.86 0-227.888-102.029-227.888-227.888 0-125.86 102.029-227.888 227.888-227.888s227.889 102.029 227.889 227.888c0 125.86-102.029 227.889-227.889 227.889zM256 100.36c-83.835 0-152.038 68.206-152.038 152.043 0 83.838 68.204 152.043 152.038 152.043 83.835 0 152.038-68.203 152.038-152.043 0.002-83.84-68.204-152.043-152.038-152.043z" />
<glyph unicode="&#x47;" d="M440.566 23.519h-369.262c-39.618 0-41.472 36.142-42.171 49.751-9.986 127.897-0.067 249.518 0.642 257.904-0.333 18.458 15.452 41.045 41.529 41.045h369.262c22.656 0 41.134-18.24 41.526-40.804 1.134-9.024 11.141-95.654-0.021-256.478-0.092-1.324-0.159-2.739-0.228-4.211-0.676-14.128-2.25-47.207-41.278-47.207zM76.424 345.856c-18.974 0.069-20.329-21.228-20.329-21.228-0.538-6.779-10.819-80.292-0.642-210.637 1.308-25.449 7.803-29.878 20.974-29.878h359.022c21.791 0.034 20.214 30.178 20.313 31.647 11.389 164.106 0.182 207.544 0.064 208.417 0 0-0.579 21.97-20.38 21.678h-359.022zM228.268 132.608l-25.147 51.19h-49.162c-3.192 0-5.783 2.588-5.783 5.783s2.588 5.783 5.783 5.783h56.368l15.332-31.212 42.87 142.902 29.394-111.69h62.041c3.192 0 5.783-2.588 5.783-5.783s-2.588-5.783-5.783-5.783h-70.958l-21.204 80.581-39.534-131.771z" />
<glyph unicode="&#x48;" d="M273.582 321.636c-6.021 0-10.903-4.882-10.903-10.903v-99.712l53.425-52.854c2.127-2.102 4.897-3.151 7.67-3.151 2.808 0 5.619 1.080 7.752 3.236 4.234 4.281 4.199 11.182-0.082 15.419l-46.955 46.454v90.606c0 6.024-4.882 10.906-10.906 10.906zM170.176 294.905c23.202 40.581 64.138 63.309 110.827 63.309 71.913 0 127.941-56.030 127.941-127.941 0-71.913-56.028-127.941-127.941-127.941-49.559 0-91.733 25.031-114.055 69.317-0.596 1.183-3.536 4.546-8.041 2.506-3.154-1.428-3.489-5.427-2.873-6.646 23.905-47.434 71.731-76.9 124.813-76.9 77.026 0 139.689 62.666 139.689 139.689s-62.663 139.689-139.689 139.689c-50.010 0-96.51-27-121.357-70.462-0.679-1.185-0.131-5.788 2.217-7.068 4.692-2.558 7.813 1.3 8.469 2.447zM36.47 257.006c-7.501 6.454-18.819 5.609-25.273-1.89-6.457-7.501-5.612-18.816 1.886-25.272l65.698-56.558c0.4-0.346 0.842-0.599 1.264-0.901-6.151 20.621-8.97 39.906-9.305 55.119l-34.27 29.501zM162.468 263.729c-7.222 6.764-18.558 6.395-25.331-0.829l-47.995-51.241-18.401 15.844c0.335-15.214 3.154-34.498 9.305-55.119 3.131-2.255 6.766-3.435 10.424-3.435 4.79 0 9.564 1.913 13.084 5.671l59.743 63.785c6.766 7.222 6.393 18.563-0.829 25.326zM279.815 438.172c-106.544 0-209.108-79.365-209.108-207.603 0-1.003 0.010-2.025 0.036-3.067l18.401-15.844 13.68 14.605c-0.031 1.521-0.059 3.041-0.059 4.585 0 98.46 78.444 176.126 176.896 176.126 98.898 0 176.916-78.019 176.916-176.917 0-98.898-78.019-176.917-176.917-176.917-50.654 0-102.807 12.122-146.926 75.205-8.512 12.17-36.094 4.116-23.022-19.507 32.368-46.989 84.608-86.41 170.102-86.41 114.621 0 207.875 93.25 207.875 207.874s-93.253 207.869-207.875 207.869z" />
<glyph unicode="&#x49;" d="M310.674 319.335c0.33 13.304-9.536 13.834-21.194 13.834h-60.642c-11.658 0-21.555-2.184-21.194-13.834 6.745-218.406-7.36-280.986-7.36-280.986 0-11.658 16.896-13.834 28.554-13.834h67.999c11.658 0 21.194 2.178 21.194 13.834 0 0-12.57 70.797-7.358 280.986zM217.152 394.849h84.014c3.479 0 6.326 2.846 6.326 6.329v70.83c0 3.479-2.846 6.329-6.326 6.329h-84.014c-3.479 0-6.326-2.846-6.326-6.329v-70.832c-0.002-3.479 2.844-6.326 6.326-6.326z" />
<glyph unicode="&#x4a;" d="M255.721 483.19c-126.981 0-229.918-102.938-229.918-229.918s102.938-229.918 229.918-229.918 229.918 102.938 229.918 229.918c0 126.981-102.938 229.919-229.918 229.919zM266.969 121.715c-2.122-0.248-4.16 0.911-4.985 2.837-0.832 1.943-0.512 4.613 1.375 5.555 59.94 29.89 57.534 81.644 46.531 99.73-16.212 26.652-30.602 33.61-65.882 37.471-1.4 0-2.734-0.676-3.574-1.828-0.829-1.152-1.052-2.642-0.601-3.986l19.479-57.917c0.327-0.645 0.491-1.36 0.491-2.11 0-2.614-2.166-4.743-4.831-4.743-1.044 0-2.076 0.353-2.903 0.986l-117.296 90.675c-1.078 0.832-1.744 2.089-1.831 3.446-0.087 1.362 0.417 2.701 1.382 3.666l108.485 108.368c1.38 1.375 3.82 1.764 5.548 0.853 1.843-0.96 2.841-2.983 2.481-5.031l-11.525-65.162c-0.215-1.214 0.092-2.471 0.85-3.459 0.755-0.978 1.894-1.595 3.123-1.7 98.913-8.33 111.588-71.198 112.44-97.84 1.969-61.366-31.219-102.418-88.758-109.808z" />
<glyph unicode="&#x4c;" d="M256 481.672c-126.242 0-228.58-102.339-228.58-228.58s102.338-228.577 228.58-228.577 228.58 102.339 228.58 228.58-102.339 228.577-228.58 228.577zM393.482 255.509c-35.774-49.502-99.861-108.726-126.963-133.867-8.919-8.274-12.119-8.274-21.68 0.95-27.102 26.151-90.186 84.406-126.106 132.946-12.106 16.369-12.060 47.368 0.11 67.067 12.47 20.18 32.515 31.404 52.969 31.984 54.31 0 71.851-34.706 79.127-46.098 5.059-7.923 7.070-2.649 9.813 0.891 7.962 10.279 30.62 42.181 75.2 44.162 23.481 1.045 43.689-7.104 57.019-29.007 12.267-20.163 12.47-52.483 0.512-69.028z" />
<glyph unicode="&#x4d;" d="M47.004 421.95c-12.13 0-22.003-12.472-22.003-27.794s9.874-27.786 22.003-27.786h417.997c12.13 0 21.998 12.464 21.998 27.786s-9.866 27.794-21.998 27.794h-417.997zM47.004 255.214c-12.13 0-22.003-12.472-22.003-27.794s9.874-27.786 22.003-27.786h417.997c12.13 0 21.998 12.464 21.998 27.786s-9.866 27.794-21.998 27.794h-417.997zM47.004 95.411c-12.13 0-22.003-12.473-22.003-27.794s9.874-27.786 22.003-27.786h417.997c12.13 0 21.998 12.464 21.998 27.786s-9.866 27.794-21.998 27.794h-417.997z" />
<glyph unicode="&#x4e;" d="M256.776 482.87c-126.805 0-229.596-102.794-229.596-229.599s102.794-229.598 229.596-229.598c126.805 0 229.599 102.794 229.599 229.598 0 126.805-102.794 229.599-229.599 229.599zM365.575 241.936l-169.462-97.441c-9.285-5.34-16.865-0.945-16.847 9.767l0.138 78.267c0.018 10.711 0.048 28.237 0.066 38.948l0.138 78.267c0.018 10.711 7.616 15.079 16.883 9.707l169.119-98.035c9.264-5.376 9.25-14.142-0.036-19.479z" />
<glyph unicode="&#x4f;" d="M356.158 432.604c-101.975 87.774-196.086 16.228-239.086-27.604-7.782-7.931-6.356-13.061-1.193-17.324 0 0 32.85-41.103 35.075-43.328 4.633-4.634 9.18-2.857 13.046 2 37.898 47.586 117.796 67.082 142.029 17.48 52.88-108.234-90.823-120.226-90.823-120.226-9.889-0.118-7.998-5.619-8.184-10.494v-84.534c0-1.083-1.776-8.138 6.774-8.138h59.837c8.976 0 8.164 4.695 8.164 8.952l0.151 40.878c129.101 29.422 150.776 176.433 74.212 242.337zM277.033 88.853h-63.204c-2.619 0-4.762-2.142-4.762-4.759v-53.286c0-2.619 2.143-4.759 4.762-4.759h63.204c2.619 0 4.759 2.142 4.759 4.759v53.286c0 2.616-2.14 4.759-4.759 4.759z" />
<glyph unicode="&#x50;" d="M256 485.468c-127.76 0-231.329-103.57-231.329-231.329 0-127.762 103.57-231.332 231.329-231.332s231.329 103.57 231.329 231.329c0 127.762-103.57 231.332-231.329 231.332zM395.661 219.776c0-8.76-7.125-15.887-15.887-15.887h-71.166v-66.329c0-8.76-7.13-15.885-15.887-15.885h-66.161c-8.758 0-15.887 7.127-15.887 15.885v66.329h-70.444c-8.763 0-15.888 7.127-15.888 15.887v66.158c0 8.763 7.124 15.89 15.888 15.89h70.444v66.329c0 8.761 7.13 15.888 15.887 15.888h66.161c8.758 0 15.887-7.127 15.887-15.888v-66.329h71.166c8.763 0 15.887-7.127 15.887-15.89v-66.158z" />
<glyph unicode="&#x52;" d="M392.182 269.635c-37.335 10.66-76.582 6.121-110.512-12.743-24.814-11.249-53.939-51.897-53.939-51.897s-32.806 38.070-46.684 32.427c-6.434-2.614-6.912-11.894 0.251-30.218l40.263-105.447 91.292 50.12c15.836 8.067 21.337 14.548 20.951 19.914-1.080 14.938-60.416 9.738-60.416 9.738s20.272 21.988 34.642 27.966c21.271 11.83 45.868 14.663 69.276 7.99 48.315-13.786 76.409-64.307 62.628-112.62-13.786-48.315-64.302-76.411-112.62-62.623-9.608 2.742-18.608 6.976-26.75 12.585-12.324 8.486-29.212 5.392-37.716-6.945-8.496-12.332-5.386-29.214 6.945-37.716 13.002-8.957 27.346-15.711 42.637-20.075 13.281-3.786 26.654-5.596 39.824-5.596 63.271 0.007 121.625 41.7 139.83 105.493 21.986 77.069-22.83 157.657-99.901 179.648zM393.221 289.703c9.582-2.734 18.688-6.329 27.315-10.604v120.415c0 15.506-12.615 28.122-28.122 28.122h-46.244v44.659c0 7.531-22.868 13.66-30.402 13.66s-34.276-6.128-34.276-13.66v-44.659h-132.749v44.659c0 7.531-22.868 13.66-30.403 13.66s-34.273-6.126-34.273-13.66v-44.659h-44.393c-15.508 0-28.124-12.615-28.124-28.122v-303.782c0-15.506 12.616-28.122 28.124-28.122h176.553l-18.055 34.084h-135.685c-8.258 0-14.978 6.72-14.978 14.976v204.772h337.113v-28.941c0.305-0.084 8.294-2.711 8.599-2.798z" />
<glyph unicode="&#x53;" d="M437.184 424.75c-28.139 28.142-65.556 43.646-105.354 43.646s-77.212-15.504-105.351-43.646c-48.755-48.748-57.502-124.708-21.863-182.981l-26.471-27.356c-3.704 2.796-22.651 1.165-26.703-2.893l-113.395-113.39c-4.055-4.055-13.898-16.543 0-30.441l46.277-46.279c12.147-12.147 26.388-4.055 30.441 0l113.392 113.395c7.818 7.818 10.023 17.541 3.274 25.984l27.221 28.777c58.212-32.947 130.773-23.288 178.534 24.476 28.142 28.142 43.643 65.556 43.643 105.357-0.002 39.795-15.503 77.209-43.645 105.351zM398.894 252.324c-17.915-17.915-41.733-27.781-67.070-27.781-25.334 0-49.154 9.866-67.070 27.781-17.917 17.917-27.781 41.735-27.781 67.070 0 25.334 9.866 49.154 27.781 67.069 17.913 17.918 41.731 27.781 67.070 27.781 25.337 0 49.157-9.866 67.070-27.781 36.985-36.982 36.985-97.157 0-134.139z" />
<glyph unicode="&#x54;" d="M326.38 192.84c-0.034 0-0.067 0-0.1 0-0.848 1.884-2.027 5.704-2.353 12.782 8.062 7.401 30.241 30.748 40.443 71.557 5.363 19.195 12.711 45.476 9.95 88.85-3.402 53.478-38.436 107.446-109.031 107.446h-6.016c-60.71 0-100.281-34.793-114.432-100.613-6.228-28.966-1.889-70.613 3.374-87.895 9.5-39.593 37.806-70.73 46.513-79.58-0.33-5.204-0.97-8.829-1.531-11.172-133.596-4.135-140.421-148.994-140.577-152.154-0.453-9.168 5.944-17.252 14.969-18.921 1.871-0.333 369.767-0.863 376.976 1.026 8.683 2.288 14.623 10.304 14.293 19.282-0.12 3.323-6.003 149.392-132.478 149.392zM169.211 288.899c-4.135 14.221-9.067 53.45-3.042 80.804 13.673 62.067 41.776 81.067 93.002 81.067h5.747c47.111 0 77.481-22.841 87.529-85.699 6.457-40.384-3.894-64.676-9.072-84.040-10.586-44.252-36.26-65.938-36.503-66.137-1.751-1.433-2.767-3.63-2.757-5.952 0.067-13.543 3.471-21.151 6.817-25.436-45.704-17.772-83.879-4.654-99.827 2.841 1.28 3.702 2.9 10.491 3.262 21.788 0.071 2.163-0.755 4.252-2.266 5.729-0.33 0.32-33.206 32.916-42.89 75.034zM420.913 74.606c0 0-324.721-0.51-327.99-0.12-7.45 0.883-6.776 5.13-6.63 8.192 3.010 23.931 32.975 89.749 107.241 96.082 0.407-0.42 0.852-0.812 1.367-1.142 1.679-1.075 29.379-18.386 69.581-18.386 19.015 0 40.834 3.876 64.007 15.178 1.318 0.642 2.348 1.625 3.082 2.775 74.096-7.091 92.777-83.036 94.966-93.32 1.564-5.918 0.765-9.26-5.625-9.26z" />
<glyph unicode="&#x55;" d="M453.115 360.945h-33.401c-10.345 0-28.045-12.58-28.045-28.045v-141.107c0-40.807-6.608-39.079-7.070-40.038-2.087-4.357-4.716-7.035-8.784-8.957-6.055-2.867-8.356-4.316-16.919-4.316-9.36 0-17.746 1.582-24.935 4.692-5.174 2.24-16.635 3.801-16.635 40.538v73.354c0 4.871 0 10.905 0 14.942v60.892c0 15.465-6.349 28.045-21.814 28.045h-40.258c-11.528 0-21.744-6.92-26.038-17.626l-57.421-109.427-56.901 110.169c-4.45 10.255-14.546 16.883-25.725 16.883h-35.769c-15.465 0-28.045-12.58-28.045-28.045v-278.648c0-15.465 12.58-28.045 28.045-28.045h30.704c15.465 0 28.045 10.146 28.045 28.045v69.097l16.517-43.469c4.431-10.299 14.541-16.955 25.756-16.955h36.391c11.55 0 21.775 6.933 26.055 17.661l11.469 42.824c1.495-15.872 4.615-33.651 11.474-48.154 10.662-22.543 32.683-35.3 55.068-43.577 19.561-7.224 43.298-7.163 66.399-7.163 69.929 0 93.737 21.148 111.219 46.894 10.993 25.433 13.778 42.158 13.778 80.002v181.486c0.002 15.465-12.577 28.045-33.162 28.045zM465.31 169.564c0-78.682-41.014-86.704-47.603-89.625-16.054-7.117-36.908-9.241-59.81-9.241-20.887 0-40.671 2.452-57.817 9.731-49.201 20.887-49.769 64.207-51.991 100.823l-2.56 35.397-0.578-1.452-48.834-97.636c-1.423-3.579-4.833-5.89-8.686-5.89h-36.388c-3.738 0-7.104 2.214-8.581 5.655l-54.951 96.697v-132.278c0-5.156-4.194-9.349-9.349-9.349h-23.025c-5.156 0-9.349 4.194-9.349 9.349v246.036c0 5.156 4.194 9.349 9.349 9.349l32.99 0.11c3.725 0 7.091-2.21 8.576-5.63l75.093-138.88 71.396 138.519c1.431 3.574 4.839 5.88 8.678 5.88h35.141c5.156 0 9.349-4.193 9.349-9.349v-61.878c0.453-3.123 0-81.017 0-81.017 0-27.221 6.361-37.094 9.044-43.131 0.307-0.691 0.615-1.316 0.914-1.841 4.091-7.193 10.432-12.58 19.385-16.456 9.549-4.139 20.437-6.238 32.371-6.238 11.351 0 21.447 2.058 30.029 6.111 7.943 3.755 13.712 9.567 17.651 17.776 4.15 8.661 6.349 20.434 6.349 50.683v135.99c0 5.156 4.193 9.349 9.349 9.349h34.514c5.156 0 9.349 0.927 9.349-4.229v-163.335z" />
<glyph unicode="&#x56;" d="M438.38 412.949h-100.93v38.743c0 41.874-162.898 41.154-162.898 0v-38.743h-100.93c-14.958 0-27.126-12.383-27.126-27.602v-370.12c0-15.219 12.168-27.602 27.126-27.602h364.759c14.958 0 27.126 12.382 27.126 27.602v370.122c-0.002 15.216-12.17 27.6-27.126 27.6zM438.774 58.281c0-3.248-2.529-5.993-5.517-5.993h-354.517c-2.987 0-5.517 2.745-5.517 5.993v321.948c0 3.248 2.529 5.993 5.517 5.993h95.81v-32.911h162.898v32.909h95.81c2.988 0 5.517-2.745 5.517-5.993v-321.948h-0.002zM322.005 148.833h-10.614c-12.59-12.664-35.159-26.466-55.394-26.466-20.232 0-42.8 13.801-55.391 26.466h-10.614c-38.966 0-47.714-30.994-47.714-47.017v-20.677h227.438v20.677c0 11.845-9.543 47.017-47.714 47.017zM255.998 152.085c22.238 0 76.551 31.808 76.551 99.975 0 42.278-34.274 76.552-76.552 76.552s-76.549-34.276-76.549-76.554c0-69.14 54.313-99.973 76.549-99.973z" />
<glyph unicode="&#x57;" d="M256 480.819c-126.477 0-229.007-102.531-229.007-229.007s102.531-229.005 229.007-229.005c126.477 0 229.007 102.531 229.007 229.007s-102.531 229.005-229.007 229.005zM283.418 99.395c0-1.933-2.033-6.329-6.298-6.329h-40.748c-4.692 0-6.607 4.398-6.607 6.329v33.493c0 1.933 1.275 6.515 5.54 6.515h42.24c4.908 0 5.873-5.010 5.873-6.942v-33.065zM307.284 387.769c-23.242-128.41-22.643-200.478-22.643-200.478-0.217-1.92-1.546-6.269-6.238-6.269h-43.738c-5.545 0-6.036 5.189-6.298 7.101 0 0-2.043 95.88-26.934 199.774 0 2.437-1.538 7.785 5.714 7.785h94.295c7.462 0 6.162-6.147 5.842-7.913z" />
<glyph unicode="&#x58;" d="M255.99 486.216c-127.073 0-230.085-103.012-230.085-230.085 0-127.073 103.012-230.085 230.085-230.085s230.085 103.012 230.085 230.085c0 127.070-103.014 230.085-230.085 230.085zM374.661 176.876l-46.528-46.528c-6.162-6.162-16.185-6.162-22.346 0l-50.050 50.050-46.651-46.651c-6.162-6.162-16.185-6.162-22.346 0l-46.531 46.531c-6.162 6.162-6.162 16.185 0 22.346l46.651 46.651-49.543 49.544c-6.165 6.162-6.165 16.187-0.002 22.349l46.528 46.528c6.165 6.162 16.187 6.162 22.352 0l49.543-49.543 46.651 46.651c6.162 6.162 16.185 6.162 22.346 0l46.531-46.531c6.162-6.162 6.162-16.184 0-22.346l-46.651-46.651 50.050-50.050c6.162-6.162 6.162-16.185-0.002-22.349z" />
<glyph unicode="&#x59;" d="M484.534 279.898c0 8.93-6.425 19.989-19.991 19.989h-21.875l0.103 28.316c0 0-0.358 17.743-21.066 17.137-1.416 0-259.315 0-259.315 0l-15.567 34.245c-1.387 3.059-4.439 5.023-7.798 5.023h-102.817c-4.731 0-8.569-3.835-8.569-8.569 0 0-7.91-213.074 5.716-294.569 1.874-11.21 4.434-33.858 15.188-44.204 13.683-13.161 32.23-14.462 39.012-14.462 1.022 0 1.774 0.031 2.204 0.054h357.704c19.991 0 30.572 10.98 31.416 19.993 11.366 121.385 5.655 237.046 5.655 237.046zM467.385 276.923c0 0 1.557-163.315-10.765-194.977-1.037-2.668-7.196-11.418-15.406-11.423-6.781-0.005-346.586 0-346.586 0-20.516 0.246-33.367 8.576-39.025 41.168-2.91 12.388-10.765 153.451-5.712 250.66h78.49l15.567-34.245c1.387-3.059 4.439-5.022 7.798-5.022h267.331l-0.1-23.196h-323.566c-17.849 0-19.991-15.257-19.991-19.991l4.71-163.474c0-1.705 2.483-3.692 4.191-3.692 1.705 0 4.544 1.986 4.544 3.692 0 0-3.231 149.355-3.231 159.060 0 11.917 8.112 10.304 8.112 10.304s354.483-0.21 363.774-0.21c10.468 0 9.863-8.653 9.863-8.653z" />
<glyph unicode="&#x5a;" d="M495.478 359.578l-105.912 107.034c-4.252 4.298-11.213 4.298-15.465 0l-105.915-107.034c-4.252-4.298-2.786-7.816 3.262-7.816h60.007c6.046 0 10.995-4.946 10.995-10.995v-15.096c-34.334 0-91.991 0-125.512 0-3.169 1.936-5.315 5.394-5.315 9.36v121.787c0 6.046-4.946 10.992-10.993 10.992h-54.226c-6.047 0-10.995-4.946-10.995-10.992v-91.459h-112.005c-4.782 0-8.658-3.876-8.658-8.658 0 0-7.995-215.329 5.778-297.687 1.895-11.328 4.482-34.217 15.35-44.672 13.826-13.299 32.571-14.613 39.427-14.613 1.031 0 1.792 0.031 2.227 0.054h361.488c20.204 0 30.894 11.095 31.749 20.206 11.49 122.665 5.716 239.552 5.716 239.552 0 9.024-6.495 20.201-20.204 20.201h-35.054v61.028c0 6.046 4.946 10.995 10.993 10.995h60.007c6.041-0.002 7.511 3.515 3.257 7.813zM342.446 279.739h-95.227l23.198 23.442h72.031v-23.442zM449.173 265.278c10.583 0 9.974-8.742 9.974-8.742s1.572-149.686-10.877-181.68c-1.050-2.695-7.271-11.538-15.567-11.546-6.853-0.005-350.254 0-350.254 0-20.733 0.248-33.721 8.666-39.437 41.605-2.941 12.519-10.88 139.714-5.773 237.952h97.239l0.932-7.68v-0.156c0-6.047-4.946-10.993-10.993-10.993h-65.126c-6.047 0-7.514-3.517-3.261-7.815l36.101-36.483h-3.773c-18.038 0-20.203-15.421-20.203-20.203l9.879-147.284c0-1.723 5.072-3.733 6.794-3.733 1.723 0 7.153 2.010 7.153 3.733 0 0-8.386 133.017-8.386 142.822 0 12.042 8.197 10.414 8.197 10.414s-1.016-0.005 14.457-0.016c27.692-0.016 75.486-0.046 126.784-0.074 33.111-0.020 67.645-0.041 99.177-0.059 41.984-0.023 78.582-0.046 99.251-0.057 10.222-0.002 16.574-0.005 17.715-0.005z" />
<glyph unicode="&#x5e;" d="M262.991 82.739c-13.358 0-26.061 5.798-34.814 15.89l-133.786 154.268c-16.674 19.226-14.605 48.327 4.624 65.004 19.223 16.673 48.327 14.602 65.004-4.624l98.975-114.125 98.974 114.125c16.676 19.228 45.776 21.296 65.004 4.623s21.294-45.778 4.623-65.004l-133.788-154.268c-8.755-10.091-21.458-15.89-34.816-15.89z" />
<glyph unicode="&#x61;" d="M335.483 246.303c-21.696 0-42.091 8.448-57.433 23.79s-23.792 35.74-23.792 57.436 8.448 42.091 23.792 57.434c15.339 15.342 35.738 23.793 57.433 23.793 21.699 0 42.094-8.448 57.433-23.793 31.67-31.67 31.67-83.2 0-114.87-15.339-15.342-35.738-23.79-57.433-23.79zM335.47 393.513c-17.63 0-34.202-6.866-46.666-19.33-12.464-12.467-19.33-29.038-19.33-46.666 0-17.625 6.866-34.199 19.331-46.666 12.467-12.464 29.041-19.33 46.666-19.33 17.625 0 34.199 6.866 46.666 19.33 25.731 25.733 25.731 67.599 0 93.333-12.464 12.467-29.038 19.33-46.666 19.33zM440.845 432.883c-28.139 28.142-65.557 43.646-105.354 43.646s-77.214-15.503-105.354-43.646c-48.755-48.747-57.502-124.708-21.863-182.981l-26.471-27.356c-3.704 2.795-22.651 1.165-26.706-2.893l-113.395-113.39c-4.055-4.055-13.898-16.543 0-30.441l46.277-46.279c12.147-12.147 26.388-4.055 30.441 0l113.392 113.395c7.818 7.818 10.023 17.541 3.274 25.984l27.221 28.777c58.212-32.947 130.772-23.288 178.535 24.476 28.142 28.142 43.643 65.556 43.643 105.354 0.002 39.8-15.498 77.214-43.64 105.354zM206.733 143.826l-74.327-74.327c-2.54-2.545-9.465-3.318-13.376 0.591l-36.854 36.859c-4.936 4.935-2.722 11.098 0.13 13.952l73.462 73.454c2.619 2.619 8.487 5.847 13.612 0.546l37.015-37.012c5.952-5.342 3.781-11.425 0.338-14.062zM419.958 244.040c-39.522-39.145-102.669-43.653-150.044-14.43-2.824 1.746-6.487 1.3-8.807-1.050l-47.975-51.248-24.097 24.098 48.796 48.99c2.399 2.375 2.76 6.098 0.868 8.878-31.828 46.794-28.099 112.197 12.25 152.159 22.572 22.359 52.582 34.673 84.503 34.673 31.921 0 61.931-12.313 84.503-34.673 22.572-22.359 35.003-52.078 35.003-83.697 0.002-31.618-12.429-61.34-35-83.699z" />
<glyph unicode="&#x62;" d="M240.333 91.705c0.335 0.315 0.686 0.612 1.058 0.889l18.606 14.154h-157.22c-11.085 0-14.738 2.033-14.738 11.451 0 1.193-0.056 136.804-0.013 136.862 29.44 39.91 104.676 125.55 144.33 154.163 0.668 0.481 2.25 1.121 4.183-0.412 19.085-15.14 72.446-61.947 133.115-147.963h15.757c-74.012 106.242-146.314 159.549-147.042 160.113-2.329 1.808-5.671 2.119-8.005 0.338-40.090-30.576-110.779-104.113-156.649-163.835l-32.31 0.048c51.587 87.654 167.184 183.368 191.737 204.859 23.79-21.048 133.438-112.681 189.186-204.857l-19.289 0.026c4.539-2.949 7.882-7.657 8.976-13.286 0.144-0.627 0.251-1.229 0.313-1.858l0.11-1.134h28.971c0.031 0.005 0.064 0.005 0.092 0 3.825 0 6.925 3.102 6.925 6.925 0 1.613-0.553 3.102-1.479 4.278-64.765 104.61-203.402 221.701-209.267 226.745-2.588 2.227-6.41 2.24-9.008 0.023-6.228-5.315-151.724-131.392-212.229-227.774-1.293-2.061-1.088-4.738 0.162-6.83 1.252-2.087 3.507-3.367 5.942-3.367h48c0 0 1.303-156.58 1.648-161.372 0.784-10.854 10.273-19.687 21.159-19.687 0 0 87.106 0 146.005 0l-3.346 5.796c-4.923 8.533-3.093 19.267 4.324 25.705zM268.078 237.63h-72.171c-3.102 0-5.632-2.53-5.632-5.634v-92.706c0-3.106 2.526-5.63 5.632-5.63h59.825l-14.274 10.75h-40.875c-0.478 0-0.883 0.404-0.883 0.883v80.737c0 0.484 0.405 0.889 0.883 0.889h62.856c0.478 0 0.883-0.404 0.883-0.889v-10.166c2.796 1.736 6.009 2.793 9.39 3.051v13.076c0 3.108-2.529 5.637-5.632 5.637zM479.728 89.457l-0.374 0.279-33.613 25.2c0.274 3.904 0.24 7.834-0.103 11.738l33.17 25.454c0.059 0.046 0.103 0.103 0.161 0.149 3.029 2.46 3.861 6.8 1.894 10.207l-19.358 33.536c-1.989 3.446-6.533 4.951-10.202 3.31l-0.051-0.023-38.259-17.124c-1.469 0.993-2.954 1.928-4.442 2.786-1.782 1.029-3.63 1.997-5.519 2.89l-3.986 41.098c-0.023 0.223-0.087 0.43-0.125 0.645-0.697 3.776-3.942 6.561-7.844 6.561h-38.728c-3.697 0-6.868-2.583-7.736-6.108-0.064-0.266-0.149-0.522-0.187-0.798l-5.829-41.743c-3.53-1.705-6.933-3.692-10.153-5.932l-38.295 16.673c-0.207 0.089-0.425 0.135-0.635 0.205-3.515 1.165-7.632-0.315-9.495-3.548l-19.358-33.531c-1.925-3.338-1.165-7.524 1.687-10.014 0.151-0.13 0.279-0.276 0.44-0.399l33.802-25.454c-0.274-3.899-0.24-7.829 0.1-11.733l-33.746-25.669c-0.074-0.057-0.13-0.13-0.205-0.19-2.98-2.476-3.789-6.781-1.838-10.161l19.351-33.529c1.991-3.459 6.569-4.941 10.204-3.315l0.2 0.089 38.681 17.25c1.464-0.993 2.954-1.928 4.444-2.788 1.779-1.026 3.625-1.991 5.504-2.882l2.567-27.423 1.331-14.228 0.010-0.105c0.404-4.124 3.832-7.235 7.974-7.235l38.722-0.002c3.966 0 7.375 2.957 7.931 6.887l0.046 0.33 2.002 14.39 3.858 27.719c3.536 1.707 6.94 3.697 10.163 5.937l38.485-16.697c3.638-1.584 8.156-0.089 10.132 3.338l19.361 33.531c2.020 3.527 1.101 8.007-2.142 10.43zM370.786 81.055c-21.657 0-39.281 17.62-39.281 39.281 0 21.657 17.62 39.278 39.281 39.278 21.657 0 39.278-17.62 39.278-39.278 0-21.66-17.62-39.281-39.278-39.281z" />
<glyph unicode="&#x63;" d="M255.737 484.132c-126.976 0-229.911-102.935-229.911-229.909 0-126.976 102.933-229.909 229.911-229.909 126.976 0 229.908 102.935 229.908 229.908 0.002 126.976-102.933 229.909-229.909 229.909zM395.822 348.217c-58.698-46.021-159.88-229.701-159.88-229.701-7.463-16.351-12.903-9.518-20.040-4.281-13.837 10.148-110.43 105.219-110.43 105.219s-1.792 5.273 2.491 6.146c12.828 2.622 46.4 1.659 62.656 1.659 8.32 0 11.73-3.622 12.642-4.961 11.707-10.058 23.916-27.175 30.889-32.632 2.14-1.674 4.733-2.381 7.209 2.466 12.713 24.896 85.895 160.11 85.895 160.11s2.837 5.358 6.671 5.642c14.536 1.072 62.981 2.25 79.68-0.343 8.315-1.293 3.594-8.243 2.217-9.323z" />
<glyph unicode="&#x64;" d="M444.442 251.349c-1.83 26.22-3.945 38.183-7.616 52.554-30.64 119.97-143.624 146.076-144.663 146.215l-0.12 0.025c-1.731 0.233-43.049 5.668-101.824 5.668-34.532 0-67.868-1.902-99.515-5.716-23.726-4.001-29.995-21.494-29.995-30.183v-361.252c0.072-8.412 6.395-25.024 29.809-27.687 43.090-4.9 92.882-7.383 147.991-7.385 0.013 0 0.013 0 0.023 0 92.162 0 169.692 7.055 176.092 7.657 21.883 0.223 29.839 16.822 29.839 28.002v191.462l-0.021 0.64zM414.241 298.778c0.546-1.869 1.058-3.986 1.557-6.218-17.236 16.005-50.381 30.584-105.964 17.493 5.837 42.506 12.301 87.368-3.182 113.721 31.070-19.725 85.734-50.014 107.589-124.995zM421.148 90.601c-0.115-3.689-1.843-9.884-12.094-9.884l-0.87-0.041c-0.791-0.077-74.803-7.611-169.651-7.611h-0.023c-54.428 0.002-98.409 2.447-140.821 7.268-12.18 1.387-13.543 7.957-13.662 9.628v318.090c0 0.097 0.169 9.715 14.387 12.124 30.505 3.663 57.997 5.522 91.806 5.522 53.148 0 87.536-4.662 93.517-5.409 0.666-0.226 1.894-0.661 3.51-1.288 1.577-0.981 23.135-25.487 6.766-105.436-2.846-13.909 9.774-22.4 19.533-18.583 0.351 0.135 71.572 20.733 105.669-23.588 0.743-6.323 1.39-13.31 1.933-21.005v-159.787zM343.033 245.893h-184.758c-1.62 0-2.934-3.876-2.934-5.501s1.31-5.501 2.934-5.501h184.758c1.62 0 2.934 3.876 2.934 5.501-0.002 1.625-1.313 5.501-2.934 5.501zM158.274 293.724h67.451c1.62 0 2.934 3.876 2.934 5.502s-1.31 5.502-2.934 5.502h-67.451c-1.62 0-2.934-3.876-2.934-5.502s1.31-5.502 2.934-5.502zM158.274 352.558h67.451c1.62 0 2.934 3.876 2.934 5.502s-1.31 5.501-2.934 5.501h-67.451c-1.62 0-2.934-3.876-2.934-5.501s1.31-5.502 2.934-5.502zM343.033 187.059h-184.758c-1.62 0-2.934-3.876-2.934-5.502s1.31-5.502 2.934-5.502h184.758c1.62 0 2.934 3.876 2.934 5.502-0.002 1.625-1.313 5.502-2.934 5.502zM343.033 128.225h-184.758c-1.62 0-2.934-3.876-2.934-5.502s1.31-5.502 2.934-5.502h184.758c1.62 0 2.934 3.876 2.934 5.502-0.002 1.625-1.313 5.502-2.934 5.502z" />
<glyph unicode="&#x65;" d="M487.339 240.965c-1.185 1.485-29.491 36.667-71.752 72.374-42.736 36.111-83.131 51.968-120.581 57.756 47.859-14.333 82.547-56.092 82.547-109.097 0-65.915-53.63-119.544-119.544-119.544-65.915 0-119.544 53.63-119.544 119.544 0 46.846 27.1 84.903 66.432 103.014-89.846-28.938-173.959-118.866-178.153-123.845-3.422-4.065-3.215-10.061 0.476-13.883 5.105-5.286 126.206-129.47 229.742-129.47 91.978 0 223.844 123.87 229.412 129.147 3.911 3.704 4.334 9.794 0.965 14.003zM410.452 276.247l20.163 23.916c-4.779 4.342-9.797 8.755-15.027 13.176-57.625 48.691-110.997 60.578-158.628 60.578-106.519 0-225.216-126.812-230.218-132.749-3.422-4.065-3.215-10.061 0.476-13.883 0.546-0.566 35.456-2.496 38.487-5.481 20.708 21.903 95.887 126.512 193.815 126.512 47.634 0 99.335-8.922 150.933-72.069zM258.796 349.921c-47.311 0-85.811-38.5-85.811-85.811s38.5-85.811 85.811-85.811c47.312 0 85.811 38.5 85.811 85.811 0 47.311-38.5 85.811-85.811 85.811zM281.6 263.447c-14.139 0-25.6 11.461-25.6 25.6s11.461 25.6 25.6 25.6c14.139 0 25.6-11.461 25.6-25.6s-11.461-25.6-25.6-25.6z" />
<glyph unicode="&#x66;" d="M256 481.452c-126.295 0-229.046-102.748-229.046-229.048s102.748-229.048 229.046-229.048 229.046 102.748 229.046 229.048c0 126.298-102.75 229.049-229.046 229.049zM113.715 169.966c-37.478 63.434-27.789 144.409 25.298 197.504 30.74 30.736 71.606 47.664 115.075 47.664 37.629 0 66.491-12.766 84.050-23.347 2.265-1.365 4.956-5.118 1.474-8.707l-216.374-216.368c-3.374-3.374-7.962 0.61-9.523 3.254zM369.147 137.331c-30.736-30.736-71.593-47.662-115.052-47.662h-0.013c-28.662 0.007-56.368 7.39-80.888 21.476-2.378 1.365-6.538 4.918-2.338 9.070l213.576 217.246c3.292 3.292 7.657 1.282 8.863-0.696 38.825-63.716 29.478-145.802-24.149-199.434z" />
<glyph unicode="&#x67;" d="M420.47 407.834h-94.51v37.171c0 40.179-152.535 39.488-152.535 0v-37.174h-94.507c-14.006 0-25.401-11.881-25.401-26.483v-347.456c0-14.602 6.083-32.773 25.401-34.166 177.083-12.759 341.553 0 341.553 0 20.702 3.026 25.401 22.654 25.401 34.166v347.458c-0.002 14.602-11.394 26.483-25.401 26.483zM420.839 72.643c0-3.118-1.426-13.43-10.286-13.43 0 0-160.86-15.074-321.49-0.135-6.264 0.581-10.601 10.493-10.601 13.827l0.082 303.534c0 3.118 2.368 5.75 5.166 5.75h89.715v-49.498h152.535v49.498h89.715c2.798 0 5.166-2.634 5.166-5.75v-308.915l-0.002 5.12zM358.602 226.527h-216.358c-5.433 0-9.833 9.618-9.833 15.168 0 5.548 4.403 15.168 9.833 15.168h216.356c5.433 0 9.836-9.618 9.836-15.168s-4.403-15.168-9.833-15.168zM358.602 139.487h-216.358c-5.433 0-9.833 9.618-9.833 15.168s4.403 15.168 9.833 15.168h216.356c5.433 0 9.836-9.618 9.836-15.168s-4.403-15.168-9.833-15.168z" />
<glyph unicode="&#x68;" d="M283.341 294.751c0 1.625-1.31 5.501-2.934 5.501h-67.451c-1.62 0-2.934-3.876-2.934-5.501s1.314-5.502 2.934-5.502h67.451c1.62 0 2.934 3.876 2.934 5.502zM212.956 348.083h67.451c1.62 0 2.934 3.876 2.934 5.501s-1.31 5.501-2.934 5.501h-67.451c-1.62 0-2.934-3.876-2.934-5.501s1.314-5.501 2.934-5.501zM397.714 241.418h-119.079c4.012-3.441 7.831-7.104 11.397-11.003h107.681c1.62 0 2.934 3.876 2.934 5.501-0.002 1.625-1.313 5.501-2.934 5.501zM397.714 182.585h-79.865c1.162-3.599 2.158-7.273 3.008-11.003h76.856c1.62 0 2.934 3.876 2.934 5.502-0.002 1.625-1.313 5.502-2.934 5.502zM397.714 123.751h-74.939c-0.54-3.722-1.252-7.388-2.099-11.003h77.038c1.62 0 2.934 3.876 2.934 5.502-0.002 1.625-1.313 5.502-2.934 5.502zM499.123 246.874c-1.83 26.22-3.945 38.182-7.616 52.554-30.64 119.969-143.623 146.076-144.663 146.214l-0.12 0.026c-1.731 0.233-43.049 5.668-101.824 5.668-34.532 0-67.868-1.902-99.515-5.716-23.726-4.002-29.995-21.494-29.995-30.183v-169.011c7.222 5.468 15.032 10.192 23.316 14.077v143.074c0 0.098 0.169 9.715 14.387 12.124 30.505 3.664 57.997 5.525 91.806 5.525 53.148 0 87.536-4.662 93.517-5.41 0.666-0.225 1.894-0.66 3.51-1.287 1.575-0.981 23.135-25.488 6.766-105.436-2.846-13.909 9.774-22.4 19.533-18.583 0.351 0.136 71.572 20.733 105.669-23.588 0.743-6.323 1.39-13.309 1.933-21.005v-159.787h0.002c-0.115-3.689-1.843-9.884-12.094-9.884l-0.87-0.041c-0.768-0.074-70.738-7.194-161.772-7.593-15.314-22.151-37.307-39.327-63.081-48.601 17.726-0.591 36.124-0.896 55.178-0.896 0.013 0 0.013 0 0.023 0 92.162 0 169.692 7.055 176.092 7.657 21.885 0.223 29.839 16.822 29.839 28.002v191.462l-0.023 0.64zM364.516 305.577c5.837 42.506 12.301 87.368-3.182 113.721 31.070-19.725 85.734-50.014 107.589-124.995 0.546-1.869 1.058-3.986 1.557-6.218-17.236 16.005-50.381 30.585-105.964 17.493zM189.76 234.54c-3.965 0-7.181-3.216-7.181-7.181v-96.834l49.723-49.346c1.4-1.385 3.226-2.076 5.051-2.076 1.851 0 3.702 0.712 5.107 2.132 2.788 2.818 2.765 7.365-0.054 10.156l-45.463 45.133v90.834c0 3.968-3.215 7.184-7.184 7.184zM193.866 286.546c-36.749 0-73.024-13.993-99.522-38.39-26.038-23.977-41.49-56.727-44.191-93.168l-12.403 10.675c-3.303 2.841-7.518 4.409-11.87 4.409-5.309 0-10.34-2.304-13.803-6.326-6.543-7.606-5.686-19.123 1.915-25.671l43.272-37.253c0.366-0.317 0.75-0.591 1.275-0.945 3.151-2.268 6.82-3.469 10.603-3.469 5.017 0 9.864 2.099 13.289 5.76l39.355 42.012c3.323 3.548 5.066 8.179 4.907 13.041-0.159 4.859-2.201 9.365-5.75 12.688-3.385 3.172-7.803 4.918-12.442 4.918-5.013 0-9.859-2.096-13.289-5.757l-10.713-11.438c6.728 54.597 52.303 95.565 109.263 95.565 61.755 0 110.131-48.376 110.131-110.134s-48.376-110.134-110.131-110.134c-29.077 0-62.692 5.56-91.538 46.807-2.819 4.032-7.667 6.438-12.966 6.438-5.903 0-11.294-2.926-14.070-7.634-1.766-2.995-3.981-9.37 1.029-18.419l0.33-0.533c27.284-39.606 66.757-59.687 117.317-59.687 79.030 0 143.327 64.295 143.327 143.324 0 79.030-64.294 143.321-143.324 143.321z" />
<glyph unicode="&#x69;" d="M255.844 485.358c-126.6 0-229.23-102.63-229.23-229.23s102.631-229.23 229.23-229.23c126.599 0 229.23 102.63 229.23 229.23s-102.628 229.23-229.23 229.23zM224.622 411.561c0 2.514 2.055 4.57 4.57 4.57h60.69c2.514 0 4.57-2.056 4.57-4.57v-51.166c0-2.514-2.055-4.57-4.57-4.57h-60.688c-2.514 0-4.57 2.056-4.57 4.57v51.166zM286.756 88.3h-49.121c-8.42 0-20.626 1.575-20.626 9.994 0 0 10.189 45.207 5.317 202.98-0.261 8.417 6.889 9.994 15.311 9.994h43.804c8.42 0 15.55-0.384 15.312-9.994-3.766-151.836 5.317-202.98 5.317-202.98-0.002-8.42-6.892-9.994-15.314-9.994z" />
<glyph unicode="&#x6a;" d="M252.869 359.271c-1.979 0.166-3.809 1.159-5.023 2.731-1.219 1.592-1.713 3.61-1.364 5.563l18.532 104.778c0.579 3.289-1.026 6.541-3.991 8.087-2.777 1.464-6.702 0.839-8.919-1.372l-174.436-174.252c-1.552-1.551-2.365-3.704-2.225-5.895 0.141-2.186 1.213-4.203 2.944-5.543l188.606-145.799c1.331-1.019 2.99-1.584 4.67-1.584 4.283 0 7.767 3.423 7.767 7.626 0 1.206-0.266 2.353-0.793 3.389l-31.322 93.13c-0.727 2.158-0.366 4.557 0.965 6.407 1.351 1.851 3.497 2.939 5.75 2.939 56.727-6.205 79.862-17.398 105.933-60.247 17.692-29.082 21.563-112.299-74.819-160.361-3.034-1.513-3.55-5.808-2.212-8.932 1.326-3.098 4.603-4.964 8.013-4.562 92.521 11.884 145.887 77.893 142.723 176.576-1.37 42.836-21.747 143.923-180.798 157.319z" />
<glyph unicode="&#x6c;" d="M381.118 403.346c-69.762-3.103-103.137-47.483-117.68-69.113l-7.655-13.391-7.701 11.993c-24.164 35.784-38.835 72.141-123.83 72.141-33.792-6.226-63.376-18.476-82.89-50.056-19.047-30.825-19.116-79.337-0.172-104.952 66.542-89.93 191.567-202.309 215.014-224.487 23.582 22.029 149.442 133.803 214.945 224.44 18.716 25.889 18.396 76.47-0.798 108.027-20.864 34.281-52.49 47.030-89.234 45.396z" />
<glyph unicode="&#x6d;" d="M480.827 332.89c0 17.779-14.466 32.246-32.246 32.246h-385.231c-17.782 0-32.246-14.466-32.246-32.246 0 0-11.497-129.418-0.681-267.981 1.113-21.663 5.834-41.39 32.93-41.39h385.229c33.209 0 31.15 27.53 32.246 43.328 12.119 174.628 0 266.043 0 266.043zM68.47 340.414h374.989c8.615 0 15.626-7.012 15.626-15.626 0 0 1.477-13.678 2.985-39.447h-411.561c1.477 25.634 2.873 39.399 2.873 39.399 0.077 7.964 6.474 15.675 15.088 15.675zM459.087 96.686c-1.387-11.451-8.31-15.821-21.166-15.626h-363.909c-11.205 0.845-18.475 2.921-21.166 14.495-6.469 52.009-6.484 59.385-4.813 112.218h416.469c1.49-51.024 1.193-56.512-5.414-111.086z" />
<glyph unicode="&#x6e;" d="M452.795 272.868l-355.21 205.911c-19.463 11.282-35.42 2.107-35.459-20.39l-0.289-164.386c-0.038-22.495-0.102-59.308-0.141-81.802l-0.289-164.388c-0.038-22.495 15.885-31.726 35.385-20.514l355.932 204.664c19.5 11.213 19.53 29.622 0.072 40.904z" />
<glyph unicode="&#x6f;" d="M255.483 487.47c-127.419 0-230.713-103.294-230.713-230.713s103.293-230.712 230.713-230.712c127.419 0 230.713 103.293 230.713 230.712s-103.293 230.713-230.713 230.713zM280.832 87.153c0-1.961-1.603-3.563-3.563-3.563h-47.322c-1.961 0-3.564 1.603-3.564 3.563v39.895c0 1.961 1.605 3.563 3.564 3.563h47.319c1.961 0 3.563-1.603 3.563-3.563v-39.895zM280.945 206.536l-0.113-30.605c0-3.187 0.606-6.702-6.113-6.702h-44.8c-6.4 0-5.072 5.281-5.072 6.093v63.291c0.141 3.65-1.275 7.767 6.126 7.857 0 0 107.589 8.978 67.999 90.012-18.142 37.136-77.959 22.541-106.334-13.087-2.895-3.635-6.3-4.966-9.769-1.498-1.667 1.667-26.261 32.438-26.261 32.438-3.865 3.192-4.933 7.033 0.893 12.969 32.195 32.816 102.654 86.382 179 20.667 57.326-49.339 41.098-159.403-55.557-181.435z" />
<glyph unicode="&#x70;" d="M459.738 329.247h-121.055v112.829c0 14.902-12.124 27.026-27.026 27.026h-112.537c-14.902 0-27.026-12.124-27.026-27.026v-112.829h-119.823c-14.907 0-27.031-12.124-27.031-27.029v-112.535c0-14.899 12.124-27.024 27.031-27.024h119.823v-112.832c0-14.899 12.124-27.021 27.026-27.021h112.54c14.902 0 27.026 12.122 27.026 27.021v112.832h121.055c14.899 0 27.024 12.124 27.024 27.024v112.535c-0.002 14.907-12.127 27.029-27.026 27.029z" />
<glyph unicode="&#x71;" d="M450.222 479.573h-368.128c-8.159 0-14.794-6.635-14.794-14.794v-130.035c0-8.159 6.635-14.794 14.794-14.794h27.645v-318.192c0-8.159 6.636-14.794 14.794-14.794h283.251c8.159 0 14.794 6.635 14.794 14.794v318.198h27.645c8.159 0 14.794 6.635 14.794 14.794v130.033c-0.002 8.159-6.638 14.791-14.797 14.791zM399.017 60.391c0-5.038-3.618-9.62-9.62-9.62h-246.512c-5.701 0-9.62 3.678-9.62 9.62v252.444c0 6.024 4.71 6.003 6.003 6.003h253.744c5.401 0 6.003-4.711 6.003-6.003v-252.444zM442.954 447.678v-95.257c0-1.341-1.25-9.976-9.976-9.976h-333.568c-10.445 0-9.977 8.635-9.977 9.976v91.83c0 1.341-0.76 12.821 7.506 12.821h338.44c8.581 0 7.575-8.051 7.575-9.393zM351.795 91.799l-39.964 47.416 39.885 47.483c0.829 0.935 1.974 2.964 0.3 6.087-1.656 3.092-5.514 6.213-10.409 6.213-5.041 0-8.125-2.998-10.017-5.255-18.519-22.205-27.868-33.408-32.584-39.255l-17.603 21.931c-0.21 0.448-0.453 0.788-0.622 0.976l-6.142 7.45-6.769 8.435c-0.289 0.377-0.686 0.678-1.024 1.022l-21.299 25.836c23.181 2.87 36.275 15.493 36.275 35.469 0 23.155-17.303 35.911-48.725 35.911h-33.613c-6.561 0-11.901-4.79-11.901-10.675v-98.57c0-5.852 3.911-9.488 10.202-9.488h1.513c6.018 0 10.386 3.991 10.386 9.488v37.258h8.231l37.179-43.919 30.009-36.211-40.281-48.013c-0.829-0.935-1.974-2.964-0.299-6.093 1.656-3.092 5.514-6.211 10.409-6.211 5.030 0 8.126 2.995 10.025 5.269l33.175 40.079 32.19-39.798c2.665-3.111 6.848-5.041 10.921-5.041 5.524 0 9.264 3.325 10.791 6.175 1.738 3.257 0.361 5.371-0.236 6.031zM234.23 237.824h-24.55v34.888h23.795c23.024 0 25.687-9.956 25.687-17.444-0.002-11.577-8.389-17.444-24.932-17.444z" />
<glyph unicode="&#x73;" d="M255.143 175.578c-31.506 0-57.136 25.63-57.136 57.136 0 31.504 25.631 57.134 57.137 57.134 31.503 0 57.134-25.63 57.134-57.134 0-31.506-25.63-57.136-57.134-57.136zM255.173 275.948c-23.839 0-43.233-19.394-43.233-43.23 0-23.838 19.394-43.233 43.233-43.233 23.839 0 43.231 19.394 43.231 43.233 0.002 23.836-19.392 43.231-43.231 43.231zM450.739 177.275l-0.671 0.502-60.344 45.245c0.491 7.009 0.43 14.064-0.182 21.074l59.548 45.706c0.105 0.082 0.185 0.184 0.286 0.266 5.438 4.416 6.93 12.208 3.402 18.325l-34.757 60.209c-3.571 6.185-11.728 8.891-18.317 5.942l-0.092-0.041-68.69-30.743c-2.637 1.784-5.305 3.458-7.974 5-3.197 1.848-6.518 3.587-9.913 5.186l-7.161 73.79c-0.041 0.399-0.156 0.77-0.228 1.157-1.252 6.779-7.079 11.779-14.085 11.779h-69.527c-6.636 0-12.334-4.636-13.891-10.964-0.118-0.476-0.266-0.94-0.335-1.434l-10.468-74.949c-6.339-3.062-12.444-6.63-18.227-10.652l-68.757 29.939c-0.371 0.162-0.76 0.243-1.142 0.369-6.311 2.091-13.701-0.566-17.047-6.37l-34.76-60.204c-3.456-5.99-2.094-13.509 3.029-17.979 0.269-0.236 0.502-0.499 0.791-0.717l60.687-45.701c-0.492-6.999-0.43-14.055 0.177-21.063l-60.59-46.085c-0.133-0.103-0.236-0.233-0.366-0.341-5.35-4.444-6.802-12.175-3.3-18.243l34.745-60.196c3.576-6.208 11.794-8.873 18.32-5.95l0.359 0.159 69.45 30.971c2.631-1.784 5.304-3.461 7.98-5.005 3.192-1.846 6.507-3.577 9.884-5.174l7.017-74.969c0.727-7.401 6.881-12.987 14.318-12.987l69.522-0.005c7.122 0 13.24 5.31 14.238 12.365l0.082 0.594 10.524 75.605c6.349 3.067 12.459 6.638 18.245 10.66l69.097-29.973c6.531-2.846 14.646-0.159 18.194 5.993l34.762 60.201c3.643 6.315 1.989 14.359-3.835 18.709zM383.155 118.963l-57.587 24.981-3.338-2.476c-7.014-5.207-14.613-9.654-22.589-13.223l-3.643-1.625-6.267-63.465c-11.991-2.547-21.852-3.914-34.59-3.914-12.741 0-22.602 1.367-34.596 3.914l-3.318 62.779-3.899 1.695c-4.232 1.836-8.381 3.925-12.324 6.203-3.423 1.976-6.845 4.199-10.173 6.608l-3.362 2.425-58.404-26.043c-16.773 18.171-27.241 37.266-35.362 61.179l48.697 36.429-0.482 4.078c-1.024 8.686-1.101 17.472-0.226 26.13l0.407 4.032-51.745 36.413c7.775 23.99 20.483 43.21 36.946 61.575l58.768-25.584 3.344 2.481c6.999 5.212 14.595 9.654 22.566 13.212l3.643 1.625 3.843 61.639c11.533 2.347 23.465 3.587 35.681 3.587 13.143 0 25.945-1.47 38.288-4.176l0.986-60.354 3.881-1.685c4.242-1.841 8.394-3.932 12.342-6.218 3.413-1.966 6.83-4.191 10.161-6.597l3.366-2.435 57.661 25.808c16.691-18.26 27.046-37.442 35.049-61.419l-47.642-35.973 0.481-4.060c1.029-8.666 1.106-17.454 0.231-26.119l-0.412-4.039 48.048-35.385c-7.731-24.154-17.907-43.517-34.43-62z" />
<glyph unicode="&#x74;" d="M452.444 360.489l-10.342 21.55c-6.019 12.541-21.053 21.998-34.967 21.998h-75.43l-18.855 43.042c-1.692 4.669-6.126 7.78-11.092 7.78h-74.327c-4.923 0-9.323-3.056-11.047-7.664l-19.331-43.157h-83.234c-13.647 0-28.921-9.001-35.525-20.946l-12.416-22.459c-3.157-5.701-1.088-12.877 4.613-16.025 1.808-1.001 6.326-1.475 8.256-1.475 4.153 0 8.184 2.194 10.332 6.087l9.856 17.339c2.448 4.423 9.826 8.77 14.886 8.77h293.312c4.825 0 11.615-4.267 13.706-8.615l7.783-16.43c2.816-5.881 12.431-8.333 18.294-5.53 5.873 2.819 8.348 9.861 5.527 15.734zM235.614 426.151h57.876l8.005-22.114h-74.145l8.263 22.114zM385.94 349.031h-247.98c-7.757 0-15.14-3.213-20.247-8.812-5.115-5.604-7.636-13.245-6.927-20.974l26.386-269.245c1.416-15.49 14.713-27.63 30.274-27.63h183.112c15.445 0 28.869 12.029 30.569 27.389l31.662 269.299c0.853 7.757-1.554 15.444-6.61 21.089-5.063 5.645-12.434 8.883-20.24 8.883zM358.454 92.068c-0.368-3.346-3.76-6.387-7.12-6.387h-184.666c-3.254 0-6.489 2.954-6.789 6.195l-23.048 226.962c-0.133 1.479 0.397 2.406 0.863 2.921 0.466 0.512 1.341 1.124 2.826 1.124h242.859c1.134 0 2.055-0.358 2.668-1.037 0.604-0.673 0.858-1.63 0.732-2.765l-28.327-227.013zM259.904 269.863c-3.904 0-5.509-3.879-5.509-5.509v-133.447c0-1.63 1.605-5.509 5.509-5.509 3.884 0 5.509 3.878 5.509 5.509v133.45c0 1.628-1.521 5.506-5.509 5.506zM195.556 269.617c-3.556 0-5.394-4.109-5.263-5.735l12.124-132.976c-0.563-2.711 3.146-5.68 6.533-5.271 3.53 0.425 4.595 4.122 4.464 5.745l-12.121 132.976c-0.131 1.618-2.465 5.261-5.737 5.261zM321.088 269.663c-4.18 0.048-5.599-3.661-5.719-5.284l-11.246-133.056c-0.12-1.623 1.139-5.471 5.281-5.721 3.344-0.202 5.834 2.75 5.719 5.284l11.246 133.056c0.12 1.623-1.25 5.675-5.281 5.721z" />
<glyph unicode="&#x77;" d="M324.836 469.21h-138.089c-10.621 0-8.369-7.833-8.369-11.402 36.454-152.146 39.447-292.557 39.447-292.557 0.381-2.803 1.101-10.401 9.224-10.401h64.046c6.873 0 8.819 6.372 9.139 9.183 0 0-0.875 105.538 33.159 293.591 0.469 2.585 2.375 11.587-8.558 11.587zM289.846 93.904h-61.86c-6.249 0-8.115-6.712-8.115-9.541v-49.050c0-2.829 2.806-9.267 9.679-9.267h59.671c6.249 0 9.224 6.438 9.224 9.267v48.425c0 2.829-1.413 10.166-8.599 10.166z" />
<glyph unicode="&#x78;" d="M383.754 256.602l89.669 89.395c11.469 11.469 11.469 30.131 0 41.6l-87.225 86.305c-11.469 11.469-30.131 11.469-41.6 0l-89.070-89.075-92.231 92.231c-11.474 11.474-30.137 11.474-41.61 0l-86.62-86.62c-11.469-11.469-11.469-30.131 0.005-41.605l92.231-92.231-86.848-86.848c-11.469-11.469-11.469-30.131 0-41.6l79.27-93.537c11.469-11.469 30.131-11.469 41.6 0l94.203 93.76 93.179-93.179c11.469-11.469 30.131-11.469 41.603 0l86.62 86.62c11.474 11.474 11.474 30.137 0.005 41.605l-93.181 93.179z" />
<glyph unicode="&#x7a;" d="M341.883 456.33c0-17.892-14.505-32.397-32.397-32.397s-32.397 14.505-32.397 32.397c0 17.893 14.505 32.397 32.397 32.397 17.892 0 32.397-14.505 32.397-32.397zM490.355 429.353c0-31.495-25.531-57.026-57.026-57.026s-57.026 25.531-57.026 57.026c0 31.495 25.531 57.026 57.026 57.026 31.495 0 57.026-25.531 57.026-57.026zM459.418 310.979c0-23.789-19.285-43.075-43.075-43.075s-43.075 19.285-43.075 43.075c0 23.789 19.285 43.075 43.075 43.075 23.789 0 43.075-19.285 43.075-43.075zM436.216 37.051l-121.305 209.446c-2.411 4.165-4.385 11.507-4.385 16.32v85.312c0 4.813 3.938 8.75 8.75 8.75h6.695c4.813 0 8.75 3.938 8.75 8.75v42.55c0 4.813-3.938 8.75-8.75 8.75h-163.512c-4.813 0-8.75-3.937-8.75-8.75v-42.553c0-4.813 3.938-8.75 8.75-8.75h6.697c4.813 0 8.75-3.938 8.75-8.75v-85.312c0-4.813-1.974-12.155-4.386-16.32l-125.419-216.55c-2.412-4.165-10.151-37.066 23.45-37.066h340.731c37.86 0.002 26.348 40.010 23.936 44.173zM170.117 382.037v9.736c0 4.813 3.938 8.75 8.75 8.75h130.693c4.813 0 8.75-3.938 8.75-8.75v-9.736c0-4.813-3.938-8.75-8.75-8.75h-6.695c-4.813 0-8.75-3.938-8.75-8.75v-106.122c0-1.252 0.138-2.678 0.379-4.17-3.774-4.375-10.468-9.27-19.075-10.304-10.928-1.298-21.975 4.206-32.005 15.951-5.184 6.072-11.686 9.339-19.331 9.718-10.708 0.469-21.678-4.944-29.77-10.253v105.18c0 4.813-3.938 8.75-8.75 8.75h-6.697c-4.813 0-8.75 3.938-8.75 8.75zM380.587 55.189h-269.773c-13.883 0-15.831 11.5-10.416 19.853l86.971 146.573c1.034 1.787 1.976 4.165 2.726 6.671 7.010 5.456 22.154 13.712 33.625 13.174 5.514-0.274 10.048-2.576 13.852-7.030 12.877-15.083 25.403-18.836 34.681-18.836 1.438 0 2.806 0.092 4.080 0.246 8.013 0.962 17.772 4.743 23.040 9.372 0.519-1.334 1.091-2.562 1.687-3.594l88.609-149.494c2.411-4.165 1.014-16.935-9.083-16.935z" />
</font>
</defs>
</svg>
